<svg width="898" height="1593" viewBox="0 0 898 1593" fill="none" xmlns="http://www.w3.org/2000/svg" preserveAspectRatio="none">
    <g clip-path="url(#clip0_1101_3000)">
        <rect width="898" height="1593" fill="white" />
        <path d="M66.6518 223C83.8947 223 94.4087 197.796 94.4087 145.78L94.4087 31.29L84.841 31.29L84.841 142.562C84.841 184.39 78.5326 202.622 66.6518 202.622C54.771 202.622 48.5677 183.854 48.5677 142.562L48.5677 31.29L39 31.29L39 145.78C39 197.796 49.4088 223 66.6518 223Z" fill="#1D1D1B" />
        <path d="M137.028 218.978C161.526 218.978 174.248 181.977 174.248 124.866C174.248 58.1026 158.582 31.29 134.715 31.29L112.636 31.29L112.636 218.978L137.028 218.978ZM122.203 51.6676L135.451 51.6676C155.533 51.6676 164.259 77.9439 164.259 124.866C164.259 177.419 153.535 198.332 135.872 198.332L122.203 198.332L122.203 51.6676Z" fill="#1D1D1B" />
        <path d="M209.11 116.554L241.704 31.29L229.823 31.29L202.802 102.343C201.33 106.097 199.753 109.851 198.386 113.605L198.386 31.29L188.924 31.29L188.924 218.978L198.386 218.978L198.386 144.439L202.592 133.446L233.713 218.978L246.645 218.978L209.11 116.554Z" fill="#1D1D1B" />
        <path d="M286.176 218.978L286.176 136.932L304.26 136.932C315.195 136.932 319.716 146.048 319.716 175.81L319.716 218.978L329.284 218.978L329.284 169.107C329.284 144.439 324.237 129.156 317.298 126.207C323.922 121.112 330.861 104.22 330.861 80.6252C330.861 48.9863 321.924 31.29 307.835 31.29L276.609 31.29L276.609 218.978L286.176 218.978ZM286.176 51.6676L305.522 51.6676C315.405 51.6676 321.083 62.3926 321.083 83.5746C321.083 104.757 315.405 116.286 305.522 116.286L286.176 116.286L286.176 51.6676Z" fill="#1D1D1B" />
        <path d="M373.447 223C390.689 223 401.203 197.796 401.203 145.78L401.203 31.29L391.636 31.29L391.636 142.562C391.636 184.39 385.327 202.622 373.447 202.622C361.566 202.622 355.362 183.854 355.362 142.562L355.362 31.29L345.795 31.29L345.795 145.78C345.795 197.796 356.204 223 373.447 223Z" fill="#1D1D1B" />
        <path d="M428.998 218.978L428.998 54.8851L467.479 218.978L480.832 218.978L480.832 31.29L471.159 31.29L471.159 191.361L433.835 31.29L419.43 31.29L419.43 218.978L428.998 218.978Z" fill="#1D1D1B" />
        <path d="M524.115 218.978C548.613 218.978 561.335 181.977 561.335 124.866C561.335 58.1026 545.669 31.29 521.802 31.29L499.723 31.29L499.723 218.978L524.115 218.978ZM509.29 51.6676L522.538 51.6676C542.62 51.6676 551.346 77.9439 551.346 124.866C551.346 177.419 540.622 198.332 522.959 198.332L509.29 198.332L509.29 51.6676Z" fill="#1D1D1B" />
        <path d="M606.396 223C616.805 223 625.742 209.862 629.737 192.97L629.737 218.978L637.623 218.978L637.623 120.844L605.765 120.844L605.765 141.49L628.896 141.49L628.896 144.975C628.896 183.049 620.169 202.622 606.712 202.622C591.782 202.622 581.583 170.179 581.583 126.207C581.583 74.1902 592.518 47.6457 607.237 47.6457C617.646 47.6457 625.637 63.197 627.109 85.7196L637.307 85.7196C635.625 51.1313 623.429 27 607.237 27C588.102 27 571.49 61.5882 571.49 126.207C571.49 180.904 584.842 223 606.396 223Z" fill="#1D1D1B" />
        <path d="M715.143 218.978L685.598 31.29L674.033 31.29L644.594 218.978L654.687 218.978L663.099 163.208L696.112 163.208L704.524 218.978L715.143 218.978ZM677.503 67.7551C678.239 62.9289 678.975 58.1026 679.605 53.5445C680.341 58.1026 680.972 62.9289 681.708 67.7551L693.063 142.83L666.148 142.83L677.503 67.7551Z" fill="#1D1D1B" />
        <path d="M734.663 218.978L734.663 54.8851L773.145 218.978L786.497 218.978L786.497 31.29L776.824 31.29L776.824 191.361L739.5 31.29L725.096 31.29L725.096 218.978L734.663 218.978Z" fill="#1D1D1B" />
        <path d="M835.773 223C846.182 223 855.119 209.862 859.114 192.97L859.114 218.978L867 218.978L867 120.844L835.143 120.844L835.143 141.49L858.273 141.49L858.273 144.975C858.273 183.049 849.547 202.622 836.089 202.622C821.159 202.622 810.96 170.179 810.96 126.207C810.96 74.1902 821.895 47.6457 836.615 47.6457C847.023 47.6457 855.014 63.197 856.486 85.7196L866.685 85.7196C865.002 51.1313 852.806 27 836.615 27C817.479 27 800.867 61.5882 800.867 126.207C800.867 180.904 814.22 223 835.773 223Z" fill="#1D1D1B" />
        <path d="M279.579 250V443.701H31V959H867V443.701H635.434V250H279.579Z" fill="#1D1D1B" />
        <path d="M592.694 1435.25L592.694 1399.24L535.104 1399.24C536.203 1387.54 542.323 1372.69 552.523 1350.64L560.212 1333.98C580.925 1288.98 590.811 1255.22 590.811 1207.96C590.811 1149.46 576.061 1113 555.661 1113C535.104 1113 519.098 1152.16 519.098 1219.67L519.098 1230.02L533.221 1230.02L533.221 1224.17C533.221 1172.41 542.323 1145.4 555.661 1145.4C568.842 1145.4 576.532 1172.41 576.532 1208.41C576.532 1248.47 565.076 1277.27 555.818 1297.98L540.91 1330.83C523.806 1368.19 518 1394.74 518 1435.25L592.694 1435.25Z" fill="black" />
        <path d="M647.991 1442C672.941 1442 687.849 1383.04 687.849 1278.18C687.849 1173.31 672.314 1113 647.991 1113C623.354 1113 608.133 1174.66 608.133 1278.18C608.133 1381.69 622.57 1442 647.991 1442ZM647.991 1410.05C632.142 1410.05 622.413 1368.64 622.413 1278.18C622.413 1187.71 631.357 1145.4 647.991 1145.4C664.154 1145.4 673.412 1187.26 673.412 1278.18C673.412 1369.09 663.997 1410.05 647.991 1410.05Z" fill="black" />
        <path d="M777.966 1435.25L777.966 1399.24L720.376 1399.24C721.474 1387.54 727.594 1372.69 737.794 1350.64L745.483 1333.98C766.197 1288.98 776.083 1255.22 776.083 1207.96C776.083 1149.46 761.332 1113 740.932 1113C720.376 1113 704.37 1152.16 704.37 1219.67L704.37 1230.02L718.493 1230.02L718.493 1224.17C718.493 1172.41 727.594 1145.4 740.932 1145.4C754.114 1145.4 761.803 1172.41 761.803 1208.41C761.803 1248.47 750.348 1277.27 741.089 1297.98L726.182 1330.83C709.077 1368.19 703.271 1394.74 703.271 1435.25L777.966 1435.25Z" fill="black" />
        <path d="M867 1435.25L867 1399.24L809.41 1399.24C810.508 1387.54 816.628 1372.69 826.828 1350.64L834.517 1333.98C855.231 1288.98 865.117 1255.22 865.117 1207.96C865.117 1149.46 850.366 1113 829.967 1113C809.41 1113 793.404 1152.16 793.404 1219.67L793.404 1230.02L807.527 1230.02L807.527 1224.17C807.527 1172.41 816.628 1145.4 829.967 1145.4C843.148 1145.4 850.837 1172.41 850.837 1208.41C850.837 1248.47 839.382 1277.27 830.124 1297.98L815.216 1330.83C798.112 1368.19 792.306 1394.74 792.306 1435.25L867 1435.25Z" fill="black" />
        <path d="M61.1703 1076.19V1066.56H37.9088C38.3524 1063.43 40.8244 1059.46 44.9443 1053.56L48.05 1049.11C56.4166 1037.07 60.4097 1028.04 60.4097 1015.4C60.4097 999.751 54.4517 990 46.2119 990C37.9088 990 31.4437 1000.47 31.4437 1018.53V1021.3H37.1482V1019.73C37.1482 1005.89 40.8244 998.668 46.2119 998.668C51.5361 998.668 54.6419 1005.89 54.6419 1015.52C54.6419 1026.24 50.0149 1033.94 46.2753 1039.48L40.2539 1048.27C33.3452 1058.26 31 1065.36 31 1076.19H61.1703Z" fill="black" />
        <path d="M97.1328 1076.19V1066.56H73.8712C74.3149 1063.43 76.7868 1059.46 80.9067 1053.56L84.0125 1049.11C92.379 1037.07 96.3722 1028.04 96.3722 1015.4C96.3722 999.751 90.4142 990 82.1744 990C73.8712 990 67.4061 1000.47 67.4061 1018.53V1021.3H73.1106V1019.73C73.1106 1005.89 76.7868 998.668 82.1744 998.668C87.4986 998.668 90.6043 1005.89 90.6043 1015.52C90.6043 1026.24 85.9774 1033.94 82.2378 1039.48L76.2164 1048.27C69.3076 1058.26 66.9624 1065.36 66.9624 1076.19H97.1328Z" fill="black" />
        <path d="M111.291 1076.19V1062.23H104.066V1076.19H111.291Z" fill="black" />
        <path d="M127.963 1076.19C128.534 1047.66 135.189 1020.7 143.936 1002.28V991.926H114.589V1001.56H138.675C137.851 1003.12 136.964 1004.93 136.14 1006.97C128.787 1023.47 123.209 1046.22 122.005 1076.19H127.963Z" fill="black" />
        <path d="M152.144 1076.19V1062.23H144.918V1076.19H152.144Z" fill="black" />
        <path d="M180.992 1076.19V1039.36H191.894C198.486 1039.36 201.212 1043.45 201.212 1056.81V1076.19H206.98V1053.8C206.98 1042.73 203.937 1035.87 199.754 1034.54C203.747 1032.25 207.93 1024.67 207.93 1014.08C207.93 999.871 202.543 991.926 194.049 991.926H175.225V1076.19H180.992ZM180.992 1001.08H192.655C198.613 1001.08 202.036 1005.89 202.036 1015.4C202.036 1024.91 198.613 1030.09 192.655 1030.09H180.992V1001.08Z" fill="black" />
        <path d="M233.603 1078C243.998 1078 250.336 1066.68 250.336 1043.33V991.926H244.568V1041.89C244.568 1060.66 240.765 1068.85 233.603 1068.85C226.441 1068.85 222.701 1060.42 222.701 1041.89V991.926H216.933V1043.33C216.933 1066.68 223.208 1078 233.603 1078Z" fill="black" />
        <path d="M267.092 1076.19V1002.52L290.29 1076.19H298.34V991.926H292.509V1063.79L270.008 991.926H261.324V1076.19H267.092Z" fill="black" />
        <path d="M324.433 1076.19C339.201 1076.19 346.87 1059.58 346.87 1033.94C346.87 1003.96 337.426 991.926 323.038 991.926H309.728V1076.19H324.433ZM315.496 1001.08H323.482C335.588 1001.08 340.849 1012.87 340.849 1033.94C340.849 1057.53 334.384 1066.92 323.736 1066.92H315.496V1001.08Z" fill="black" />
        <path d="M374.035 1078C380.31 1078 385.698 1072.1 388.106 1064.52V1076.19H392.86V1032.13H373.655V1041.4H387.599V1042.97C387.599 1060.06 382.339 1068.85 374.226 1068.85C365.225 1068.85 359.077 1054.28 359.077 1034.54C359.077 1011.19 365.669 999.269 374.542 999.269C380.817 999.269 385.635 1006.25 386.522 1016.36H392.67C391.656 1000.83 384.303 990 374.542 990C363.007 990 352.992 1005.53 352.992 1034.54C352.992 1059.1 361.042 1078 374.035 1078Z" fill="black" />
        <path d="M439.593 1076.19L421.782 991.926H414.81L397.063 1076.19H403.148L408.218 1051.15H428.12L433.191 1076.19H439.593ZM416.902 1008.3C417.345 1006.13 417.789 1003.96 418.169 1001.92C418.613 1003.96 418.993 1006.13 419.437 1008.3L426.282 1042.01H410.056L416.902 1008.3Z" fill="black" />
        <path d="M451.361 1076.19V1002.52L474.559 1076.19H482.609V991.926H476.777V1063.79L454.276 991.926H445.593V1076.19H451.361Z" fill="black" />
        <path d="M512.314 1078C518.589 1078 523.977 1072.1 526.385 1064.52V1076.19H531.139V1032.13H511.934V1041.4H525.878V1042.97C525.878 1060.06 520.618 1068.85 512.505 1068.85C503.504 1068.85 497.356 1054.28 497.356 1034.54C497.356 1011.19 503.948 999.269 512.822 999.269C519.096 999.269 523.914 1006.25 524.801 1016.36H530.949C529.935 1000.83 522.582 990 512.822 990C501.286 990 491.271 1005.53 491.271 1034.54C491.271 1059.1 499.321 1078 512.314 1078Z" fill="black" />
        <path d="M561.538 1076.19V1039.72H573.074C581.124 1039.72 588.286 1034.3 588.286 1015.88C588.286 997.343 580.807 991.926 573.074 991.926H555.77V1076.19H561.538ZM561.538 1001.08H573.011C579.793 1001.08 582.391 1006.85 582.391 1015.88C582.391 1024.79 579.793 1030.57 573.011 1030.57H561.538V1001.08Z" fill="black" />
        <path d="M601.462 1076.19V1039.36H612.364C618.956 1039.36 621.681 1043.45 621.681 1056.81V1076.19H627.449V1053.8C627.449 1042.73 624.407 1035.87 620.224 1034.54C624.217 1032.25 628.4 1024.67 628.4 1014.08C628.4 999.871 623.012 991.926 614.519 991.926H595.694V1076.19H601.462ZM601.462 1001.08H613.125C619.083 1001.08 622.505 1005.89 622.505 1015.4C622.505 1024.91 619.083 1030.09 613.125 1030.09H601.462V1001.08Z" fill="black" />
        <path d="M667.446 1076.19V1066.92H643.614V1037.91H665.672V1028.64H643.614V1001.08H666.686V991.926H637.847V1076.19H667.446Z" fill="black" />
        <path d="M694.725 1076.19L711.902 991.926H705.754L693.901 1053.2C693.14 1056.93 692.38 1060.79 691.682 1064.4C690.922 1060.66 690.225 1057.05 689.464 1053.2L677.611 991.926H671.273L688.07 1076.19H694.725Z" fill="black" />
        <path d="M718.004 991.926V1076.19H723.772V991.926H718.004Z" fill="black" />
        <path d="M764.873 1076.19V1066.92H741.041V1037.91H763.098V1028.64H741.041V1001.08H764.112V991.926H735.273V1076.19H764.873Z" fill="black" />
        <path d="M788.285 1076.19L797.286 1013.11L798.807 1001.92C799.314 1005.65 799.884 1009.38 800.391 1013.11L809.202 1076.19H816.237L828.28 991.926H822.639L813.829 1053.2C813.385 1056.45 812.941 1059.7 812.434 1063.07C812.054 1059.94 811.547 1056.33 811.04 1053.2L802.483 991.926H795.257L786.574 1053.2C786.194 1056.09 785.56 1059.94 785.116 1062.95C784.672 1059.58 784.229 1056.33 783.722 1053.2L775.102 991.926H769.144L781.186 1076.19H788.285Z" fill="black" />
        <path d="M849.57 1078C860.472 1078 867 1066.68 867 1052.84C867 1040.08 861.866 1032.86 854.83 1029.73L846.971 1026.36C841.773 1024.07 839.238 1019.73 839.238 1012.51C839.238 1004.81 843.485 999.269 849.253 999.269C855.464 999.269 859.584 1005.53 859.964 1015.52H865.859C865.352 999.871 858.95 990 849.38 990C839.999 990 833.153 999.871 833.153 1013.47C833.153 1026.36 838.731 1033.7 845.513 1036.71L852.105 1039.6C857.366 1041.89 860.915 1045.5 860.915 1053.56C860.915 1062.71 856.922 1068.85 849.633 1068.85C842.598 1068.85 837.907 1061.27 837.527 1049.11H831.632C831.759 1066.92 838.795 1078 849.57 1078Z" fill="black" />
        <path d="M38.3574 1440.13L38.3574 1402.04H52.2637C60.6722 1402.04 64.1487 1406.27 64.1487 1420.09V1440.13H71.5061V1416.98C71.5061 1405.53 67.6253 1398.43 62.2892 1397.06C67.3828 1394.69 72.7189 1386.85 72.7189 1375.9C72.7189 1361.21 65.8466 1352.99 55.0126 1352.99H31L31 1440.13H38.3574ZM38.3574 1362.45H53.2339C60.8339 1362.45 65.1998 1367.43 65.1998 1377.27C65.1998 1387.1 60.8339 1392.45 53.2339 1392.45H38.3574L38.3574 1362.45Z" fill="#1D1D1B" />
        <path d="M105.467 1442C118.726 1442 126.811 1430.3 126.811 1406.15L126.811 1352.99H119.454L119.454 1404.65C119.454 1424.07 114.603 1432.54 105.467 1432.54C96.3304 1432.54 91.5602 1423.82 91.5602 1404.65L91.5602 1352.99H84.2028L84.2028 1406.15C84.2028 1430.3 92.207 1442 105.467 1442Z" fill="#1D1D1B" />
        <path d="M148.185 1440.13L148.185 1363.95L177.776 1440.13H188.044L188.044 1352.99H180.606L180.606 1427.31L151.904 1352.99H140.827L140.827 1440.13H148.185Z" fill="#1D1D1B" />
        <path d="M221.328 1440.13C240.166 1440.13 249.949 1422.95 249.949 1396.44C249.949 1365.44 237.902 1352.99 219.549 1352.99H202.571L202.571 1440.13H221.328ZM209.928 1362.45H220.115C235.558 1362.45 242.268 1374.65 242.268 1396.44C242.268 1420.84 234.021 1430.55 220.439 1430.55H209.928L209.928 1362.45Z" fill="#1D1D1B" />
        <path d="M284.6 1442C292.605 1442 299.477 1435.9 302.549 1428.06V1440.13H308.613V1394.57H284.115V1404.16H301.902V1405.77C301.902 1423.45 295.192 1432.54 284.843 1432.54C273.362 1432.54 265.52 1417.48 265.52 1397.06C265.52 1372.91 273.928 1360.59 285.247 1360.59C293.251 1360.59 299.396 1367.81 300.528 1378.26H308.371C307.077 1362.2 297.698 1351 285.247 1351C270.532 1351 257.758 1367.06 257.758 1397.06C257.758 1422.46 268.026 1442 284.6 1442Z" fill="#1D1D1B" />
        <path d="M368.225 1440.13L345.506 1352.99H336.612L313.974 1440.13H321.736L328.204 1414.24H353.591L360.059 1440.13H368.225ZM339.28 1369.92C339.846 1367.68 340.412 1365.44 340.897 1363.32C341.463 1365.44 341.948 1367.68 342.514 1369.92L351.246 1404.78H330.548L339.28 1369.92Z" fill="#1D1D1B" />
        <path d="M383.236 1440.13V1363.95L412.827 1440.13H423.095V1352.99H415.657V1427.31L386.955 1352.99H375.878V1440.13H383.236Z" fill="#1D1D1B" />
        <path d="M460.987 1442C468.992 1442 475.864 1435.9 478.936 1428.06V1440.13H485V1394.57H460.502V1404.16H478.289V1405.77C478.289 1423.45 471.579 1432.54 461.23 1432.54C449.749 1432.54 441.907 1417.48 441.907 1397.06C441.907 1372.91 450.315 1360.59 461.634 1360.59C469.638 1360.59 475.783 1367.81 476.915 1378.26H484.757C483.464 1362.2 474.085 1351 461.634 1351C446.919 1351 434.145 1367.06 434.145 1397.06C434.145 1422.46 444.413 1442 460.987 1442Z" fill="#1D1D1B" />
        <path d="M54.6585 1560.18L54.6585 1484.67H71.7808V1475.48H31L31 1484.67H48.1933L48.1933 1560.18H54.6585Z" fill="#1D1D1B" />
        <path d="M115.715 1560.18L95.7512 1475.48H87.9361L68.043 1560.18H74.8635L80.5472 1535.01H102.856L108.54 1560.18H115.715ZM90.2806 1491.93C90.778 1489.76 91.2753 1487.58 91.7016 1485.52C92.1989 1487.58 92.6252 1489.76 93.1225 1491.93L100.796 1525.82H82.6076L90.2806 1491.93Z" fill="#1D1D1B" />
        <path d="M141.933 1562C148.966 1562 155.005 1556.07 157.705 1548.45V1560.18H163.033V1515.89H141.506L141.506 1525.21H157.137V1526.79C157.137 1543.97 151.24 1552.8 142.146 1552.8C132.057 1552.8 125.166 1538.16 125.166 1518.31C125.166 1494.84 132.554 1482.86 142.501 1482.86C149.535 1482.86 154.934 1489.88 155.929 1500.04H162.82C161.684 1484.43 153.442 1473.54 142.501 1473.54C129.571 1473.54 118.345 1489.15 118.345 1518.31C118.345 1543 127.368 1562 141.933 1562Z" fill="#1D1D1B" />
        <path d="M206.962 1560.18V1550.87H180.248V1521.7H204.973V1512.39H180.248L180.248 1484.67H206.109V1475.48H173.783L173.783 1560.18H206.962Z" fill="#1D1D1B" />
        <path d="M250.42 1560.18C266.974 1560.18 275.57 1543.49 275.57 1517.71C275.57 1487.58 264.984 1475.48 248.857 1475.48H233.937L233.937 1560.18H250.42ZM240.402 1484.67H249.354C262.924 1484.67 268.821 1496.53 268.821 1517.71C268.821 1541.43 261.574 1550.87 249.638 1550.87H240.402L240.402 1484.67Z" fill="#1D1D1B" />
        <path d="M318.666 1560.18V1550.87H291.953L291.953 1521.7H316.677V1512.39H291.953V1484.67H317.814V1475.48H285.487V1560.18H318.666Z" fill="#1D1D1B" />
        <path d="M335.247 1560.18L335.247 1523.16H347.467C354.855 1523.16 357.91 1527.27 357.91 1540.7V1560.18H364.376L364.376 1537.68C364.376 1526.54 360.965 1519.65 356.276 1518.31C360.752 1516.02 365.441 1508.39 365.441 1497.74C365.441 1483.46 359.402 1475.48 349.882 1475.48H328.781L328.781 1560.18H335.247ZM335.247 1484.67H348.319C354.998 1484.67 358.834 1489.51 358.834 1499.07C358.834 1508.63 354.998 1513.84 348.319 1513.84H335.247V1484.67Z" fill="#1D1D1B" />
        <path d="M413.422 1562C426.779 1562 437.01 1544.45 437.01 1517.83C437.01 1491.21 426.921 1473.54 413.422 1473.54C399.995 1473.54 389.835 1491.21 389.835 1517.83C389.835 1544.45 400.066 1562 413.422 1562ZM413.422 1552.8C403.334 1552.8 396.655 1539.49 396.655 1517.83C396.655 1496.17 403.547 1482.86 413.422 1482.86C423.369 1482.86 430.189 1496.17 430.189 1517.83C430.189 1539.49 423.511 1552.8 413.422 1552.8Z" fill="#1D1D1B" />
        <path d="M453.195 1560.18L453.195 1521.1H477.919V1511.9H453.195V1484.67H479.127V1475.48H446.73L446.73 1560.18H453.195Z" fill="#1D1D1B" />
        <path d="M494.546 1560.18L494.546 1521.1H519.271V1511.9H494.546V1484.67H520.478V1475.48H488.081L488.081 1560.18H494.546Z" fill="#1D1D1B" />
        <path d="M562.611 1560.18V1550.87H535.898V1521.7H560.622V1512.39H535.898V1484.67H561.759V1475.48H529.433V1560.18H562.611Z" fill="#1D1D1B" />
        <path d="M579.192 1560.18V1486.13L605.195 1560.18H614.218V1475.48H607.682V1547.72L582.46 1475.48H572.727V1560.18H579.192Z" fill="#1D1D1B" />
        <path d="M660.162 1560.18V1550.87H633.448V1521.7H658.172V1512.39H633.448V1484.67H659.309V1475.48H626.983V1560.18H660.162Z" fill="#1D1D1B" />
        <path d="M676.742 1560.18V1486.13L702.745 1560.18H711.768V1475.48H705.232V1547.72L680.01 1475.48H670.277V1560.18H676.742Z" fill="#1D1D1B" />
        <path d="M756.868 1560.18V1484.67H773.991V1475.48H733.21V1484.67H750.403V1560.18H756.868Z" fill="#1D1D1B" />
        <path d="M795.644 1464.46V1452H788.539V1464.46H795.644ZM809.924 1464.46V1452H802.891V1464.46H809.924ZM799.267 1562C810.919 1562 818.023 1550.62 818.023 1527.15V1475.48H811.558V1525.7C811.558 1544.57 807.295 1552.8 799.267 1552.8C791.239 1552.8 787.047 1544.33 787.047 1525.7V1475.48H780.582V1527.15C780.582 1550.62 787.615 1562 799.267 1562Z" fill="#1D1D1B" />
        <path d="M836.805 1560.18V1523.16H849.025C856.414 1523.16 859.469 1527.27 859.469 1540.7V1560.18H865.934V1537.68C865.934 1526.54 862.524 1519.65 857.835 1518.31C862.311 1516.02 867 1508.39 867 1497.74C867 1483.46 860.961 1475.48 851.441 1475.48H830.34V1560.18H836.805ZM836.805 1484.67H849.878C856.556 1484.67 860.393 1489.51 860.393 1499.07C860.393 1508.63 856.556 1513.84 849.878 1513.84H836.805V1484.67Z" fill="#1D1D1B" />
        <path d="M86.9639 1318.61V1295.19H43.8153C44.6383 1287.58 49.2235 1277.92 56.8656 1263.57L62.6266 1252.74C78.146 1223.47 85.553 1201.51 85.553 1170.77C85.553 1132.71 74.5013 1109 59.2171 1109C43.8153 1109 31.823 1134.47 31.823 1178.38V1185.11H42.4044V1181.31C42.4044 1147.64 49.2235 1130.08 59.2171 1130.08C69.093 1130.08 74.854 1147.64 74.854 1171.06C74.854 1197.12 66.2713 1215.85 59.3346 1229.32L48.1654 1250.69C35.3501 1274.99 31 1292.26 31 1318.61H86.9639Z" fill="black" />
        <path d="M126.042 1323C143.09 1323 155.2 1298.12 155.2 1262.4C155.2 1237.22 149.439 1218.2 138.152 1210.58C148.028 1202.39 153.084 1183.94 153.084 1162.87C153.084 1131.25 141.915 1109 126.983 1109C109.347 1109 99.3538 1134.18 99.0011 1171.06H109.583C109.818 1145.3 115.814 1130.08 126.865 1130.08C136.154 1130.08 142.385 1142.37 142.385 1164.04C142.385 1187.75 135.213 1200.34 126.513 1200.34H121.575V1222.88H126.395C136.389 1222.88 144.501 1236.35 144.501 1261.52C144.501 1286.99 136.859 1302.21 126.042 1302.21C114.521 1302.21 108.172 1283.77 108.172 1259.47H97.7078C97.7078 1297.53 108.524 1323 126.042 1323Z" fill="black" />
        <path d="M182.117 1318.61V1284.65H168.713V1318.61H182.117Z" fill="black" />
        <path d="M248.449 1250.69V1229.32H197.188V1250.69H248.449Z" fill="black" />
        <path d="M314.528 1318.61V1295.19H271.38C272.203 1287.58 276.788 1277.92 284.43 1263.57L290.191 1252.74C305.71 1223.47 313.117 1201.51 313.117 1170.77C313.117 1132.71 302.066 1109 286.781 1109C271.38 1109 259.387 1134.47 259.387 1178.38V1185.11H269.969V1181.31C269.969 1147.64 276.788 1130.08 286.781 1130.08C296.657 1130.08 302.418 1147.64 302.418 1171.06C302.418 1197.12 293.836 1215.85 286.899 1229.32L275.73 1250.69C262.915 1274.99 258.564 1292.26 258.564 1318.61H314.528Z" fill="black" />
        <path d="M369.862 1318.61V1266.21H385.029V1242.79H369.862V1113.68H355.989L321.775 1241.32V1266.21H359.516V1318.61H369.862ZM331.534 1242.79C332.474 1239.27 333.415 1235.47 334.238 1232.54L355.989 1150.86L359.516 1136.81V1242.79H331.534Z" fill="black" />
        <path d="M409.222 1318.61V1284.65H395.819V1318.61H409.222Z" fill="black" />
        <path d="M440.147 1318.61C441.205 1249.23 453.55 1183.65 469.775 1138.86V1113.68H415.339V1137.1H460.016C458.488 1140.91 456.842 1145.3 455.313 1150.28C441.675 1190.38 431.329 1245.71 429.095 1318.61H440.147Z" fill="black" />
        <path d="M485 1318.61V1284.65H471.597V1318.61H485Z" fill="black" />
        <path d="M682.491 325C690.663 325 696.373 315.561 697.309 300.274L692.632 300.274C691.697 310.534 688.054 317.202 682.393 317.202C675.55 317.202 670.726 305.404 670.726 287.141C670.726 268.981 675.402 257.9 682.393 257.9C688.005 257.9 691.451 264.261 692.337 274.829L697.26 274.829C696.62 260.773 690.909 250 682.59 250C673.089 250 666 264.774 666 287.141C666 310.636 672.646 325 682.491 325Z" fill="black" />
        <path d="M717.821 325C727.076 325 734.164 310.123 734.164 287.551C734.164 264.979 727.174 250 717.821 250C708.517 250 701.477 264.979 701.477 287.551C701.477 310.123 708.566 325 717.821 325ZM717.821 317.202C710.831 317.202 706.203 305.917 706.203 287.551C706.203 269.186 710.978 257.9 717.821 257.9C724.713 257.9 729.439 269.186 729.439 287.551C729.439 305.917 724.811 317.202 717.821 317.202Z" fill="black" />
        <path d="M745.33 323.461L745.33 260.67L757.095 323.461L762.116 323.461L773.833 260.568L773.833 323.461L778.263 323.461L778.263 251.642L771.371 251.642L761.132 306.327C760.64 308.995 760.197 311.354 759.704 314.124L747.89 251.642L740.899 251.642L740.899 323.461L745.33 323.461Z" fill="black" />
        <path d="M787.146 251.642L787.146 323.461L791.626 323.461L791.626 251.642L787.146 251.642Z" fill="black" />
        <path d="M805.039 323.461L805.039 260.67L823.056 323.461L829.308 323.461L829.308 251.642L824.779 251.642L824.779 312.893L807.303 251.642L800.559 251.642L800.559 323.461L805.039 323.461Z" fill="black" />
        <path d="M852.379 325C857.253 325 861.437 319.973 863.308 313.509L863.308 323.461L867 323.461L867 285.91L852.084 285.91L852.084 293.81L862.914 293.81L862.914 295.144C862.914 309.713 858.828 317.202 852.527 317.202C845.537 317.202 840.762 304.788 840.762 287.962C840.762 268.057 845.881 257.9 852.773 257.9C857.647 257.9 861.388 263.851 862.077 272.469L866.852 272.469C866.065 259.234 860.354 250 852.773 250C843.814 250 836.036 263.235 836.036 287.962C836.036 308.892 842.288 325 852.379 325Z" fill="black" />
        <path d="M686.4 415C698.799 415 706.224 405.227 706.224 393.271C706.224 382.25 700.385 376.012 692.383 373.309L683.445 370.398C677.534 368.423 674.65 364.68 674.65 358.442C674.65 351.788 679.48 347.005 686.04 347.005C693.104 347.005 697.79 352.412 698.222 361.041L704.926 361.041C704.35 347.525 697.069 339 686.184 339C675.515 339 667.73 347.525 667.73 359.274C667.73 370.398 674.074 376.74 681.787 379.339L689.284 381.834C695.267 383.81 699.304 386.929 699.304 393.895C699.304 401.796 694.762 407.098 686.472 407.098C678.471 407.098 673.136 400.549 672.704 390.048L666 390.048C666.144 405.435 674.146 415 686.4 415Z" fill="black" />
        <path d="M736.48 415C750.032 415 760.412 399.925 760.412 377.052C760.412 354.179 750.176 339 736.48 339C722.855 339 712.547 354.179 712.547 377.052C712.547 399.925 722.928 415 736.48 415ZM736.48 407.098C726.243 407.098 719.467 395.662 719.467 377.052C719.467 358.442 726.46 347.005 736.48 347.005C746.572 347.005 753.492 358.442 753.492 377.052C753.492 395.662 746.716 407.098 736.48 407.098Z" fill="black" />
        <path d="M791.107 415C804.659 415 815.04 399.925 815.04 377.052C815.04 354.179 804.803 339 791.107 339C777.483 339 767.175 354.179 767.175 377.052C767.175 399.925 777.555 415 791.107 415ZM791.107 407.098C780.871 407.098 774.095 395.662 774.095 377.052C774.095 358.442 781.087 347.005 791.107 347.005C801.199 347.005 808.119 358.442 808.119 377.052C808.119 395.662 801.343 407.098 791.107 407.098Z" fill="black" />
        <path d="M831.462 413.44L831.462 349.813L857.845 413.44L867 413.44L867 340.663L860.368 340.663L860.368 402.732L834.778 340.663L824.902 340.663L824.902 413.44L831.462 413.44Z" fill="black" />
        <path d="M84.3731 412.594L84.3731 394.427L49.3901 394.427C50.0573 388.523 53.7749 381.029 59.9708 369.902L64.6415 361.499C77.224 338.791 83.2293 321.759 83.2293 297.915C83.2293 268.394 74.269 250 61.8772 250C49.3901 250 39.6673 269.757 39.6673 303.819L39.6673 309.042L48.2462 309.042L48.2462 306.09C48.2462 279.975 53.7749 266.35 61.8772 266.35C69.8842 266.35 74.555 279.975 74.555 298.142C74.555 318.353 67.5965 332.886 61.9725 343.332L52.917 359.91C42.5269 378.758 39 392.156 39 412.594L84.3731 412.594Z" fill="black" />
        <path d="M117.963 416C133.119 416 142.175 386.252 142.175 333.341C142.175 280.43 132.738 250 117.963 250C102.997 250 93.7512 281.111 93.7512 333.341C93.7512 385.57 102.521 416 117.963 416ZM117.963 399.877C108.335 399.877 102.425 378.985 102.425 333.341C102.425 287.696 107.859 266.35 117.963 266.35C127.781 266.35 133.405 287.469 133.405 333.341C133.405 379.212 127.686 399.877 117.963 399.877Z" fill="black" />
        <path d="M196.916 412.594L196.916 394.427L161.933 394.427C162.6 388.523 166.318 381.029 172.514 369.902L177.184 361.499C189.767 338.791 195.772 321.759 195.772 297.915C195.772 268.394 186.812 250 174.42 250C161.933 250 152.21 269.757 152.21 303.819L152.21 309.042L160.789 309.042L160.789 306.09C160.789 279.975 166.318 266.35 174.42 266.35C182.427 266.35 187.098 279.975 187.098 298.142C187.098 318.353 180.139 332.886 174.515 343.332L165.46 359.91C155.07 378.758 151.543 392.156 151.543 412.594L196.916 412.594Z" fill="black" />
        <path d="M251 412.594L251 394.427L216.017 394.427C216.684 388.523 220.402 381.029 226.598 369.902L231.268 361.499C243.851 338.791 249.856 321.759 249.856 297.915C249.856 268.394 240.896 250 228.504 250C216.017 250 206.294 269.757 206.294 303.819L206.294 309.042L214.873 309.042L214.873 306.09C214.873 279.975 220.402 266.35 228.504 266.35C236.511 266.35 241.182 279.975 241.182 298.142C241.182 318.353 234.223 332.886 228.599 343.332L219.544 359.91C209.154 378.758 205.627 392.156 205.627 412.594L251 412.594Z" fill="black" />
        <path d="M301.405 245.653C301.405 266.71 301.919 287.537 298.778 308.418C295.738 328.622 296.15 348.38 296.15 368.848C296.15 401.566 295.315 434.675 293.523 466.938C293.296 471.019 291.93 474.886 290.822 478.761C290.583 479.598 285.268 480.398 284.327 480.805C275.498 484.623 263.109 483.432 253.82 483.432C234.389 483.432 214.25 481.928 194.996 485.038C171.628 488.811 144.727 492.907 137.485 519.194C133.484 533.714 138.68 544.01 148.724 554.518C170.648 577.453 199.233 584.278 230.1 585.025C253.007 585.579 267.825 575.934 286.954 565.173C302.71 556.311 318.037 550.976 336.218 550.504C347.282 550.216 361.267 550.019 369.133 559.335C374.72 565.95 376.092 575.33 380.957 582.543C404.575 617.564 452.923 568.924 467.15 548.752C474.04 538.982 486.995 521.114 479.192 508.392C472.99 498.28 459.158 491.561 447.882 489.49C438.688 487.801 423.756 486.906 415.259 491.606C410.443 494.27 409.677 502.972 408.544 507.662C404.291 525.283 409.576 546.602 416.354 562.765C427.454 589.235 465.384 593.381 489.118 586.776C514.867 579.611 541.185 567.342 562.247 550.723C576.741 539.286 582.358 520.842 583.558 502.846C584.676 486.069 578.557 472.652 568.742 459.348C564.215 453.21 556.618 442.02 548.38 440.372C542.81 439.258 516.093 436.798 529.55 448.546C536.164 454.32 569.855 478.308 575.676 459.786C579.554 447.447 576.623 430.348 562.247 426.943C547.097 423.355 529.147 425.493 513.932 427.6C498.347 429.758 489.631 441.057 480.068 452.779C451.533 487.757 435.186 529.554 422.265 572.326C413.99 599.719 407.286 627.568 400.005 655.234C398.526 660.856 397.021 666.429 396.064 672.167C395.774 673.907 395.925 678.523 394.678 677.275C394.021 676.619 393.788 673.428 393.656 672.604C392.573 665.867 391.672 659.341 390.007 652.68C386.055 636.873 385.036 616.638 376.286 602.541C370.995 594.017 362.107 592.155 352.639 591.447C336.914 590.271 326.572 598.935 317.315 610.934C307.678 623.426 297.692 641.714 302.573 658.154C306.995 673.051 325.002 683.258 340.013 682.749C356.916 682.176 364.126 656.239 366.798 642.973C369.563 629.243 367.836 620.374 354.829 613.488C332.813 601.833 275.144 589.58 263.6 622.976C261.296 629.64 260.352 641.003 263.965 647.425C266.412 651.775 265.768 643.551 265.351 642.389C261.959 632.926 250.673 623.703 242.8 618.232C230.188 609.468 213.489 604.575 198.207 604.292C194.111 604.216 182.417 601.733 181.932 607.795C181.02 619.188 188.418 629.085 194.704 637.864C200.478 645.931 207.916 648.632 217.182 643.484C228.338 637.287 230.337 623.044 227.546 611.882C221.339 587.054 205.228 570.865 179.888 574.807C176.723 575.299 164.365 576.069 162.445 579.332C160.124 583.278 163.922 592.529 164.927 596.045C165.71 598.786 178.499 642.808 186.384 638.302C189.046 636.781 192.17 621.267 193.39 618.013C194.385 615.359 198.939 606.92 193.682 606.92C188.927 606.92 184.622 611.942 181.567 615.094C172.813 624.125 165.822 636.528 160.985 648.082C158.609 653.759 158.212 658.694 158.212 664.722C158.212 666.323 158.659 671.881 158.139 667.204C154.982 638.792 148.223 609.39 130.77 586.119C122.241 574.746 119.533 557.731 109.605 547.803C101.777 539.975 87.0151 604.373 86.2507 608.817C81.7887 634.759 82.5652 661.242 87.3454 687.055C90.6407 704.85 95.3009 722.333 97.4901 740.333C97.6024 741.257 98.5855 749.335 97.1981 747.485C96.1994 746.153 100.093 745.811 101.65 745.223C112.365 741.175 121.943 734.478 131.354 728.072C136.43 724.617 179.461 694.735 158.212 686.471C135.65 677.697 126.953 724.04 124.859 737.414C123.65 745.134 119.052 762.107 126.683 768.212C131.221 771.842 141.322 769.818 146.535 769.818C171.892 769.818 185.142 750.107 192.076 727.488C198.17 707.611 205.233 678.775 198.718 658.008C195.783 648.653 185.53 646.285 176.896 648.228C172.648 649.184 161.154 653.814 160.839 659.467C160.101 672.751 146.11 692.358 141.134 707.636C127.781 748.633 105.664 789.213 105.664 832.875C105.664 847.216 99.3499 868.4 116.174 873.6C125.567 876.504 136.772 874.914 146.462 874.914C157.006 874.914 168.975 876.691 178.939 872.578C202.065 863.034 186.703 833.655 167.408 829.226C134.172 821.598 129.311 869.577 129.311 892.722C129.311 898.621 129.478 899.44 135.368 900.531C147.125 902.708 159.447 902.779 171.349 903.523C200.605 905.352 229.837 906.443 259.148 906.443C264.806 906.443 271.255 905.443 275.788 901.918C278.313 899.954 277.758 898.728 277.758 895.349C277.758 882.112 278.28 868.769 277.102 855.573C276.919 853.53 275.431 847.897 276.591 845.867C276.917 845.296 277.692 846.611 278.123 847.107C280.924 850.328 283.865 853.283 287.1 856.084C304.531 871.173 324.289 883.359 343.735 895.641C359.34 905.497 372.977 915.423 386.503 928.483C396.065 937.716 406.753 920.79 409.42 914.033C414.225 901.861 417.514 889.098 420.222 876.3C422.254 866.692 424.545 856.886 432.775 850.537C445.368 840.823 465.263 838.845 473.207 854.479C479.306 866.48 481.616 879.705 485.834 892.357C487.616 897.705 489.722 898.112 495.248 899.217C520.624 904.292 502.833 869.124 497.657 859.806C489.233 844.644 477.209 826.719 462.698 816.673C449.525 807.554 432.3 807.915 417.01 807.915C394.316 807.915 361.861 815.617 349.063 836.671C337.377 855.895 327.81 880.903 304.835 888.562C294.967 891.851 278.379 890.62 272.577 881.336C267.737 873.592 265.813 862.942 265.935 853.895C266.12 840.252 278.819 834.052 289.436 828.351C295.137 825.289 302.652 820.322 309.579 821.344C318.113 822.603 327.738 826.728 335.561 830.248C352.486 837.864 367.214 850.024 381.541 861.485C394.587 871.922 407.079 883.137 420.66 893.014C429.763 899.634 439.53 905.286 450.437 908.34C455.676 909.807 461.53 909.208 466.931 910.092C477.638 911.844 495.873 918.441 506.342 914.033C510.814 912.15 510.544 906.889 512.472 902.939C517.668 892.301 521.473 881.307 530.572 873.308C544.435 861.121 576.55 845.012 595.381 855.5C616.388 867.2 608.326 896.345 615.379 915.346C618.532 923.842 623.824 928.775 633.041 928.775C642.6 928.775 640.99 913.696 641.361 906.88C642.245 890.615 642.966 874.343 642.966 858.055C642.966 846.117 637.002 837.412 629.756 828.205C621.115 817.223 614.566 801.98 602.971 793.757C601.36 792.614 591.476 786.151 590.491 791.567C589.71 795.865 588.002 797.672 584.288 800.325C573.54 808.002 561.541 814.504 548.307 816.308C533.682 818.303 519.925 815.994 510.283 803.974C500.618 791.926 500.727 775.494 501.16 760.768C501.431 751.564 502.493 737.286 514.808 737.559C530.936 737.918 545.725 754.944 555.532 765.877C567.789 779.54 576.975 795.892 591.002 807.915C603.348 818.497 617.757 826.146 633.697 829.518C646.929 832.317 658.182 831.742 668.656 822.074C677.882 813.558 678.681 802.65 683.107 791.786C690.852 772.775 732.02 810.424 737.917 816.892C742.378 821.784 745.623 824.211 742.223 830.832C734.144 846.566 719.529 859.033 706.316 870.389C703.139 873.119 697.056 875.562 701.864 879.658C711.721 888.054 726.015 888.385 738.282 889.073C744.804 889.438 752.73 888.084 755.287 881.263C760.566 867.188 758.987 848.966 759.593 834.189C760.354 815.648 760.953 796.34 759.156 777.846C757.331 759.079 750.158 747.214 733.903 737.268C723.437 730.863 709.958 723.78 697.485 722.671C681.016 721.207 667.872 733.524 656.833 744.201C650.392 750.431 640.406 763.473 630.121 763.25C627.01 763.182 624.696 760.786 622.385 759.017C615.086 753.43 607.943 747.764 601.074 741.647C590.692 732.4 582.002 725.219 568.378 721.503C555.276 717.93 541.143 717.896 527.726 719.387C507.759 721.605 488.68 728.586 468.828 731.721C455.089 733.89 444.001 736.34 430.95 741.428C418.585 746.248 407.113 746.235 393.948 746.171C370.199 746.056 346.48 744.858 322.716 744.858C314.714 744.858 309.637 744.956 302.646 740.844C293.205 735.29 283.739 730.36 274.109 725.152C256.209 715.471 234.723 701.312 254.404 679.757C260.686 672.877 275.827 665.757 282.94 674.648C287.951 680.911 289.181 688.341 290.895 695.959C292.415 702.712 293.512 711.423 298.413 716.686C305.315 724.1 316.105 729.688 326.073 731.429C351.686 735.901 371.969 724.711 392.05 708.804C400.204 702.345 408.035 695.481 416.135 688.953C421.158 684.904 426.404 679.459 432.702 677.421C442.295 674.318 449.75 684.934 455.4 690.996C464.23 700.473 473.339 707.445 486.563 708.585C498.58 709.621 506.054 701.562 515.83 695.959C528.851 688.495 541.748 682.408 556.408 678.662C585.698 671.177 618.15 673.918 648.148 673.918C669.589 673.918 689.732 682.967 711.206 684.939C717.115 685.481 759.283 691.309 753.171 674.502C752.35 672.244 749.551 670.558 747.843 669.101C742.046 664.157 737.192 658.452 732.006 652.899C720.966 641.078 708.892 634.126 694.857 626.552C683.83 620.601 674.341 612.104 662.964 606.92C657.06 604.229 651.447 602.516 646.907 597.724C636.719 586.969 684.13 579.186 689.384 579.624C701.729 580.653 736.947 606.433 743.829 587.506C747.67 576.943 749.376 567.069 749.376 555.831C749.376 550.601 750.92 542.377 749.084 537.294C747.784 533.694 742.581 532.894 739.45 532.331C725.251 529.775 710.397 529.693 696.025 529.484C686.526 529.347 676.065 528.348 666.613 529.995C659.312 531.268 652.672 534.896 645.667 537.148C636.721 540.023 623.361 542.011 614.065 539.337C610.34 538.266 606.467 535.088 604.723 531.601C601.723 525.6 615.437 520.409 618.663 518.829C641.849 507.473 667.754 499.419 693.617 498.175C707.405 497.511 720.411 503.011 733.392 507.006C742.048 509.669 752.767 515.434 754.558 503.794C755.25 499.296 756.489 489.032 751.857 486.716C742.402 481.989 726.905 484.437 716.825 485.038C704.22 485.789 692.708 489.304 680.48 491.898C667.703 494.608 655.278 491.27 643.039 488.03C634.813 485.852 626.581 484.061 618.298 482.118C610.51 480.292 603.797 476.497 595.746 475.55C578.323 473.5 562.285 471.609 544.439 471.609C526.227 471.609 504.296 472.265 486.928 466.062C475.593 462.014 498.395 458.472 500.795 458.472C507.752 458.472 503.722 457.872 500.795 463.727C499.811 465.695 498.121 457.46 497.73 456.428C493.547 445.402 488.828 434.596 484.593 423.586C475.01 398.67 462.99 373.614 462.99 346.224C462.99 324.57 459.527 303.343 457.808 281.853C457.13 273.377 455.108 265.196 455.108 256.746C455.108 250.406 456.421 231.43 456.421 237.771" stroke="#E2FF5D" stroke-width="3" stroke-linecap="round" />
        <path d="M338.186 207.555C338.186 244.171 334.764 282.784 341.835 318.927C344.946 334.828 343.748 350.736 345.046 366.804C346.597 385.996 349.854 405.027 350.009 424.315C350.212 449.514 350.009 474.726 350.009 499.925C350.009 516.357 349.541 534.599 352.345 550.722C354.672 564.107 352.384 576.519 356.578 589.841C361.208 604.549 363.021 592.408 363.146 583.272C363.283 573.247 365.317 562.911 367.744 553.203C370.053 543.969 370.935 535.199 372.342 525.761C372.552 524.353 374.347 508.537 376.94 508.537C379.214 508.537 378.911 515.457 378.911 516.565C378.911 526.594 381.862 536.123 384.165 545.832C387.22 558.706 387.412 571.591 389.42 584.586C392.556 604.879 393.573 625.502 397.01 645.746C397.566 649.016 398.149 650.418 400.587 652.314C406.309 656.765 408.669 649.393 410.147 644.286C421.832 603.92 417.283 559.499 430.145 519.485C434.572 505.712 435.21 524.06 435.691 528.389C438.585 554.433 444.595 579.956 444.595 606.262C444.595 626.653 444.804 646.751 438.684 666.473C433.535 683.064 418.815 679.172 404.09 679.172C384.944 679.172 365.798 679.172 346.652 679.172C337.594 679.172 327.528 680.389 318.626 678.442C299.534 674.266 299.713 659.692 298.045 642.534C297.051 632.306 296.608 621.66 293.228 611.881C288.819 599.125 281.874 587.431 277.756 574.514C272.064 556.663 269.243 538.169 265.933 519.777C264.989 514.534 265.585 510.94 260.532 508.975C252.492 505.848 242.613 505.764 234.112 505.764C211.831 505.764 189.305 508.563 167.113 510.362C149.643 511.778 132.206 513.775 114.857 516.273C106.208 517.519 97.4191 520.215 88.6564 520.215C77.619 520.215 73.6289 522.493 78.2928 532.987C83.4192 544.521 88.1527 558.881 96.4656 568.529C106.277 579.917 125.957 583.539 139.599 587.724C156.789 592.998 181.133 592.692 195.723 604.364C206.387 612.896 207.736 629.221 209.444 641.805C209.737 643.966 214.153 659.173 211.341 660.78C197.192 668.865 175.95 664.721 160.253 664.721C151.048 664.721 139.564 663.875 130.549 666.692C125.97 668.123 120.869 670.185 116.171 670.998C112.151 671.694 107.775 670.488 103.837 671.363C101.386 671.907 103.034 691.154 103.034 693.331C103.034 703.862 101.108 714.146 108.289 722.524" stroke="#E2FF5D" stroke-width="3" stroke-linecap="round" />
        <path d="M376.287 232.514C373.412 269.526 374.973 306.993 374.973 344.106C374.973 360.581 377.6 376.641 377.6 393.077C377.6 412.647 376.473 434.395 367.383 451.902C363.15 460.054 358.5 461.089 349.429 459.638C336.676 457.598 347.49 437.906 349.721 431.904C355.321 416.836 355.919 403.919 353.37 388.26C350.711 371.929 351.799 354.796 354.611 338.486C356.118 329.741 358.159 333.639 364.463 339.216C374.047 347.693 375.389 359.686 378.33 371.182C386.794 404.267 381.574 438.509 389.424 471.753C392.055 482.897 408.921 482.117 418.69 482.117C419.717 482.117 423.52 481.036 423.58 482.117C423.876 487.449 421.447 492.573 418.033 496.567C411.971 503.661 402.254 507.202 393.365 508.902C385.106 510.48 370.638 513.859 362.712 509.486C350.644 502.828 348.635 478.404 344.831 467.228C339.898 452.739 330.818 440.671 322.498 427.671C315.775 417.166 317.516 402.661 311.623 392.056C310.523 390.075 303.978 401.168 303.741 401.543C297.989 410.69 291.113 420.896 289.874 431.904C288.916 440.42 294.837 447.128 294.837 455.259C294.837 462.255 295.349 479.789 288.269 483.722C284.11 486.033 277.281 487.372 272.577 487.372C265.795 487.372 252.789 484.592 260.535 494.451C291.525 533.892 332.463 559.015 380.957 570.864C401.615 575.912 423.188 577.765 444.234 580.571C460.364 582.722 476.838 584.212 493.133 583.126C512.601 581.828 529.679 570.135 549.403 570.135C552.648 570.135 559.002 569.98 558.89 574.659C558.449 593.206 548.13 612.751 541.083 629.397C536.073 641.23 527.978 654.164 525.537 666.91C523.78 676.087 524.734 685.992 524.734 695.301C524.734 699.825 527.61 699.067 531.595 698.877C545.96 698.193 552.145 681.035 556.263 669.684C567.91 637.574 575.263 602.13 593.776 572.981C599.298 564.287 607.464 553.646 618.445 551.889C622.394 551.257 623.262 551.912 623.262 555.83C623.262 571.823 621.948 587.917 621.948 603.999C621.948 615.686 622.751 630.273 625.962 641.512C626.122 642.07 628.489 635.898 628.808 635.236C633.513 625.479 639.115 616.384 645.303 607.502C651.873 598.07 657.55 590.099 670.263 592.759C673.42 593.42 674.496 594.922 674.496 597.941C674.496 609.57 674.496 621.198 674.496 632.827C674.496 648.149 672.751 667.663 662.673 680.193C646.339 700.499 612.091 698.877 588.522 698.877C580.524 698.877 575.542 694.911 566.481 696.833C548.258 700.699 534.181 717.345 535.317 735.514C536.266 750.703 561.287 749.256 571.736 749.819C597.934 751.231 628.885 753.941 651.141 737.412C664.139 727.759 673.769 713.63 683.546 700.92C689.625 693.017 694.749 682.944 702.74 676.69C707.775 672.75 713.057 672.273 718.87 669.975C721.506 668.933 728.939 665.325 729.598 670.924C732.553 696.04 723.783 722.402 718.505 746.681C716.518 755.818 727.019 747.38 730.985 744.856C734.181 742.822 753.343 729.435 756.529 735.806C759.219 741.186 758.028 749.444 756.967 754.928C752.762 776.65 740.645 797.88 728.649 816.234C721.777 826.749 714.429 833.004 702.083 835.501C696.259 836.679 686.716 839.248 681.064 836.523C674.77 833.488 669.776 826.83 664.57 822.291C656.745 815.47 649.288 808.851 640.997 802.586C624.751 790.312 610.098 780.991 590.419 775.071C576.162 770.782 555.378 764.085 547.067 750.695C541.408 741.577 540.499 732.262 540.499 721.721C540.499 706.029 540.499 690.338 540.499 674.646C540.499 661.69 540.942 648.505 532.617 637.717C524.717 627.482 513.568 623.05 501.088 621.369C492.629 620.229 482.398 618.561 474.449 622.682C466.788 626.655 469.559 641.23 469.559 648.008C469.559 663.798 468.204 680.356 471.165 695.958C472.898 705.092 475.959 714.371 478.755 723.253C480.902 730.074 482.802 732.163 474.814 731.719C468.7 731.38 464.987 724.759 461.604 720.48C455.457 712.706 451.737 703.245 445.329 695.812C440.878 690.649 431.028 687.68 427.521 695.52C424.572 702.11 425.197 711.466 424.237 718.509C422.922 728.151 421.797 737.731 422.339 747.484C422.912 757.803 430.148 765.384 430.148 776.312C430.148 785.401 412.019 789.534 405.48 792.149C398.003 795.14 398.914 804.452 400.663 811.198C406.174 832.454 431.133 849.992 452.481 842.654C466.641 837.786 471.076 822.454 482.404 814.482C488.763 810.008 493.93 832.981 495.176 836.815C502.082 858.064 519.387 872.858 543.418 868.052C549.908 866.754 556.737 862.602 562.248 859.075C570.906 853.533 577.686 851.266 588.084 851.266C597.175 851.266 602.769 852.449 610.125 857.177C615.48 860.62 618.756 861.775 625.232 861.775C628.397 861.775 630.129 860.036 633.041 859.148C650.094 853.945 670.124 858.02 687.049 861.483C695.546 863.222 713.682 864.814 720.11 871.701C721.764 873.473 722.446 877.804 723.322 879.948C726.003 886.517 729.129 892.783 732.809 898.851C737.768 907.026 740.959 915.588 751.274 914.031C756.596 913.228 776.547 915.866 777.986 908.193C780.046 897.204 778.278 884.498 778.278 873.38C778.278 869.92 775.466 850.167 780.759 858.564C790.82 874.523 803.682 889.239 815.791 903.668C820.336 909.082 826.842 919.747 833.453 923.227C840.189 926.772 837.445 909.341 837.248 907.025C836.352 896.499 831.407 886.135 828.198 876.153C824.12 863.464 821.858 850.245 819.732 837.107C817.827 825.326 817.843 811.345 805.866 805.578C799.007 802.276 785.839 800.209 779.008 804.556C775.915 806.524 775.883 812.336 779.592 814.19C786.085 817.437 792.892 806.158 796.67 802.951C806.156 794.896 805.866 789.896 805.866 777.188C805.866 774.03 806.967 768.377 803.968 766.167C796.98 761.018 785.198 761.557 777.11 762.226C742.676 765.076 718.761 796.205 684.422 797.331C669.949 797.806 656.17 795.165 642.237 791.419C624.661 786.695 607.058 782.834 589.251 779.085C576.982 776.502 565.096 772.937 552.906 770.108C545.333 768.351 537.013 766.76 529.989 763.248C516.169 756.338 548.462 733.6 552.249 730.625C561.692 723.205 572.803 714.963 585.164 713.619C595.632 712.482 605.836 716.803 615.671 719.604C654.264 730.594 695.698 727.545 735.364 730.114C757.385 731.539 776.028 733.657 796.451 723.983C798.948 722.8 803.609 721.765 805.574 719.604C808.224 716.689 809.174 710.543 811.12 707.051C816.702 697.037 813.626 691.865 801.268 691.068C788.08 690.217 781.015 695.653 771.053 703.402C748.572 720.887 825.328 658.495 816.886 631.294C814.423 623.36 803.963 623.245 797.108 622.974C775.893 622.137 757.397 632.911 739.159 642.388C717.461 653.662 696.416 666.849 674.496 677.566C664.76 682.325 649.058 688.89 648.295 673.625C646.919 646.114 674.676 619.981 692.158 601.371C706.014 586.621 724.296 573.337 735.072 555.976C739.81 548.342 745.613 540.599 749.158 532.329C752.093 525.48 741.621 537.257 740.838 538.168C722.893 559.022 724.662 598.419 756.018 604.875C761.292 605.96 767.336 606.918 772.731 606.918C778.162 606.918 779.835 600.225 782.511 596.408C787.422 589.404 792.971 583.177 796.67 575.389C799.622 569.174 799.313 562.044 800.611 555.392C803.015 543.072 805.067 532.038 791.196 528.753C774.811 524.873 752.079 524.362 737.407 533.497C734.193 535.498 737.592 534.87 735.875 532.402C727.653 520.584 713.157 510.346 699.821 505.398C688.969 501.373 676.303 503.136 664.935 503.136C660.669 503.136 654.494 504.271 650.265 503.063C649.021 502.707 648.533 500.182 647.93 499.195C646.575 496.978 642.382 494.874 640.048 493.94C629.36 489.665 616.814 491.313 605.527 491.313C581.301 491.313 557.434 500.509 532.908 500.509C515.012 500.509 497.875 501.338 480.288 505.107C475.829 506.062 471.078 507.135 467.224 509.704C464.368 511.608 465.099 513.47 467.224 510.434C476.911 496.596 481.894 477.342 489.119 462.192C505.117 428.647 521.774 395.294 540.718 363.3C544.689 356.592 549.828 349.156 550.935 341.405C551.88 334.794 550.943 327.633 551.3 320.97C552.24 303.422 554.864 286.195 557.577 268.86C558.741 261.42 560.204 255.848 560.204 248.279C560.204 237.769 560.204 227.26 560.204 216.75" stroke="#E2FF5D" stroke-width="3" stroke-linecap="round" />
        <path d="M399.363 243.264C399.363 304.34 399.363 365.415 399.363 426.491C399.363 444.575 399.363 462.658 399.363 480.742C399.363 499.216 406.131 513.911 413.58 530.672C417.722 539.991 420.122 544.02 406.983 540.908C388.074 536.429 369.573 530.749 351.14 524.644C342.111 521.653 324.184 519.126 319.066 509.403C315.844 503.281 345.962 504.718 349.32 504.172C357.58 502.827 387.358 496.086 370.702 484.382C358.534 475.831 342.07 475.85 327.71 476.648C311.49 477.549 360.029 480.742 376.275 480.742C426.687 480.742 478.295 478.271 527.884 489.386C539.099 491.9 562.831 504.019 571.558 492.798C576.249 486.767 581.916 482.439 587.253 477.103C594.461 469.895 576.173 472.553 573.15 472.553C540.19 472.553 507.264 472.566 474.314 473.577C442.656 474.548 408.018 478.366 376.503 473.463C372.85 472.895 364.56 471.672 364.56 466.412C364.56 462.216 387.383 464.059 389.81 463.909C421.797 461.935 453.554 457.215 485.574 455.266C496.738 454.586 524.918 448.601 535.39 455.266C548.102 463.355 560.724 470.315 574.174 477.558C579.897 480.639 566.588 480.652 564.051 481.197C528.65 488.802 493.828 501.494 461.008 516.682C454.554 519.669 431.816 525.913 430.185 534.88C428.802 542.487 446.965 540.122 450.316 540.225C475.679 541.006 500.449 541.795 525.836 540.567C544.138 539.681 562.388 536.271 580.656 536.017C583.288 535.981 592.091 534.504 594.532 536.131C596.682 537.564 589.597 537.807 587.026 538.065C576.635 539.104 566.188 539.769 555.749 539.998C546.846 540.194 479.924 547.525 489.896 522.142C493.737 512.365 538.622 500.918 536.186 489.955C535.065 484.911 514.684 485.225 511.506 484.837C488.034 481.97 463.904 482.058 440.308 483.244C403.265 485.107 368.462 497.15 331.805 501.669C319.294 503.212 304.814 505.313 292.339 502.011C274.775 497.361 257.694 489.295 241.499 481.197C230.551 475.723 220.487 467.544 208.516 464.364C202.626 462.8 155.743 458.096 155.743 465.388C155.743 469.053 160.17 471.907 162.34 474.601C171.18 485.575 181.509 493.736 195.55 496.665C232.786 504.434 259.058 497.269 293.704 484.95C298.029 483.412 302.375 482.022 306.783 480.742C306.921 480.702 314.35 478.499 314.062 478.24C311.145 475.614 302.507 476.697 299.277 476.648C282.339 476.387 265.467 475.482 248.551 474.601C192.193 471.663 135.73 472.553 79.3135 472.553C74.113 472.553 56.5674 469.595 52.472 473.691C42.4734 483.689 33.7553 501.773 37.914 516C42.6584 532.231 60.3912 553.458 79.1997 549.211C86.2555 547.617 120.734 535.999 120.94 547.163C121.112 556.453 126.625 590.43 118.438 596.979C115.824 599.071 109.987 585.732 109.339 584.696C98.4466 567.267 88.3937 549.459 74.1954 534.425C71.9384 532.035 61.789 520.514 61.5708 530.331C61.2237 545.953 65.8175 562.962 68.1675 578.327C74.1977 617.755 72.6743 661.325 93.1891 696.611C101.545 710.983 108.986 724.881 120.031 704.117C133.417 678.951 151.154 594.53 141.413 621.318C135.536 637.48 137.335 658.92 135.157 675.797C129.806 717.27 121.7 758.7 119.007 800.451C116.78 834.967 118.489 867.696 120.94 902.016C126.188 975.482 137.496 746.642 102.515 681.825C100.394 677.894 90.3237 652.592 87.1612 668.405C78.9697 709.362 76.1599 752.576 75.9014 794.195C75.8713 799.05 72.8497 817.075 77.1525 821.378C79.1925 823.418 85.361 824.931 88.1848 826.269C96.6122 830.26 102.515 808.905 102.515 803.408C102.515 774.601 98.4209 860.925 98.4209 889.733C98.4209 909.782 96.5203 912.707 116.846 912.707C163.637 912.707 210.387 908.613 257.081 908.613C274.452 908.613 222.577 904.554 205.332 902.471C190.698 900.703 162.629 902.02 171.211 879.951C174.364 871.845 183.769 861.079 192.707 867.782C195.894 870.172 218.823 884.792 209.654 886.548C184.373 891.389 154.83 885.258 131.063 896.443C119.341 901.959 108.251 909.051 95.9187 913.162C67.0225 922.794 47.6009 857.703 47.2402 837.87C47.2153 836.497 48.8009 813.191 51.3347 817.625C59.2734 831.517 58.9615 854.01 63.1631 869.26C65.4825 877.679 67.762 887.757 72.8306 895.078C74.5161 897.513 77.8259 899.959 77.9486 895.419C78.342 880.866 79.5848 866.593 81.0195 852.086C82.8968 833.105 88.1848 813.696 88.1848 794.65C88.1848 773.83 86.571 836.305 84.0903 856.977C81.2906 880.308 79.9959 902.452 79.9959 925.9C79.9959 936.539 82.2348 937.805 92.393 940.345C102.342 942.832 113.749 941.368 123.898 941.368C143.064 941.368 163.562 943.433 182.357 938.866C200.141 934.545 217.365 927.064 234.675 921.692C247.264 917.785 266.774 912.811 266.293 897.922C265.822 883.292 253.204 854.609 236.04 853.337C207.349 851.212 293.482 849.243 322.251 849.243C342.784 849.243 364.614 847.648 381.393 861.071C383.319 862.612 389.803 861.526 391.857 861.64C411.22 862.716 430.78 862.933 450.089 864.597C459.033 865.368 485.983 863.05 466.012 870.625C442.13 879.684 420.557 895.232 396.975 905.314C364.073 919.381 328.534 929.876 292.566 931.018C290.716 931.077 256.234 929.595 271.298 926.583C317.682 917.306 362.218 898.376 410.168 898.376C428.707 898.376 447.246 898.376 465.784 898.376C474.293 898.376 482.541 900.287 491.033 900.424C492.837 900.453 506.363 899.798 506.046 899.514C496.059 890.525 475.355 887.108 462.941 883.25C441.79 876.676 419.53 875.857 397.543 875.857C388.085 875.857 379.326 874.74 370.02 873.81C363.38 873.146 383.365 873.81 390.037 873.81C467.897 873.81 545.687 867.2 623.648 869.715C641.59 870.294 588.223 875.599 570.42 877.904C545.959 881.072 521.551 885.145 497.061 888.027C460.851 892.287 569.976 894.582 606.361 892.235C644.779 889.756 683.01 875.857 721.574 875.857C724.981 875.857 724.984 874.442 724.872 871.308C724.456 859.652 713.399 852.656 704.4 847.196C694.017 840.896 684.691 838.272 673.009 835.936C671.496 835.633 660.93 833.273 664.593 837.983C668.82 843.418 678.996 846.322 684.838 849.243C701.496 857.572 718.011 865.494 735.563 871.763C742.065 874.085 763.832 883.933 768.888 874.833C770.781 871.426 770.595 867.211 772.413 863.574C779.972 848.456 789.296 835.374 794.478 818.99C801.94 795.392 805.445 770.506 806.648 745.858C806.969 739.264 804.455 728.452 807.216 722.315C809.776 716.628 810.837 725.177 810.969 726.637C814.632 766.925 822.733 806.577 823.139 847.196C823.292 862.489 825.186 908.324 825.186 893.031C825.186 864.259 825.432 835.477 825.186 806.706C824.961 780.385 820.783 752.727 818.59 726.409C816.636 702.963 814.015 672.418 801.643 651.799C800.497 649.888 788.05 635.815 784.697 638.834C780.42 642.682 781.056 657.313 779.92 662.263C774.025 687.948 768.265 713.471 763.883 739.489C761.073 756.172 759.675 772.531 759.675 789.418C759.675 799.283 759.439 796.269 759.789 788.054C760.864 762.795 764.655 737.638 767.409 712.534C770.288 686.293 771.501 659.814 777.645 634.057C781.848 616.437 789.144 602.518 796.525 586.174C801.928 574.211 806.514 542.615 789.929 536.472C771.973 529.822 776.053 550.839 776.053 561.949C776.053 592.733 767.791 639.325 786.289 666.585C790.403 672.648 791.011 663.294 791.407 660.443C794.836 635.752 794.478 610.343 794.478 585.492C794.478 567.787 794.478 550.083 794.478 532.378C794.478 527.204 794.729 522.706 791.976 518.047C780.426 498.501 753.78 494.972 733.061 493.48C715.212 492.195 697.565 492.929 679.833 489.727C658.472 485.87 637.906 478.031 616.597 473.691C611.951 472.744 597.384 466.716 592.712 468.914C589.156 470.587 604.916 478.467 605.451 478.695C635.866 491.677 678.677 499.056 710.883 488.704C727.196 483.46 743.489 477.304 759.22 470.506C759.949 470.191 774.156 464.726 769.456 464.364C716.433 460.286 665.351 471.669 612.616 474.373C574.611 476.322 536.148 474.601 498.085 474.601C487.552 474.601 481.252 478.925 481.252 467.094C481.252 436.535 492.236 409.868 505.705 382.93C509.116 376.108 511.14 371.892 511.961 364.505C512.933 355.757 555.739 347.944 562.232 346.08C577.574 341.676 597.529 341.511 611.82 334.365C616.938 331.807 610.668 329.898 608.067 329.247C595.573 326.124 591.798 313.296 583.614 304.681C567.69 287.919 576.746 268.56 577.472 248.951C577.946 236.145 577.472 197.694 577.472 210.508" stroke="#E2FF5D" stroke-width="3" stroke-linecap="round" />
        <path d="M417.788 222.789C417.788 278.31 429.773 331.434 433.711 386.567C434.91 403.347 434.166 420.351 434.166 437.179C434.166 453.284 431.099 472.434 443.265 484.834C456.397 498.219 466.025 512.264 484.892 516.68C508.893 522.297 539.121 530.786 564.051 527.371C580.821 525.074 605.964 517.263 619.326 506.33C625.797 501.036 636.903 497.109 639.912 507.809C646.293 530.496 646.255 554.212 655.266 576.504C660.972 590.618 680.26 579.132 689.046 573.775C708.477 561.926 722.826 543.093 737.156 525.779C739.721 522.679 761.294 495.823 761.722 507.809C762.32 524.546 767.799 544.423 772.868 560.354C775.175 567.603 777.677 572.626 786.289 572.865C798.655 573.208 803.915 570.012 808.012 582.305C814.948 603.113 826.618 622.386 808.581 640.423C797.751 651.253 775.592 664.084 772.413 680.685C768.969 698.674 771.914 719.851 776.053 737.439C778.402 747.423 785.892 755.065 788.791 764.849C791.664 774.545 776.337 794.173 771.503 802.154C764.46 813.783 762.843 842.531 746.937 843.099C734.059 843.559 722.29 854.425 710.769 859.363C709.109 860.074 705.644 864.142 707.357 863.571C715.281 860.93 721.959 852.749 728.967 848.331C740.382 841.134 756.729 835.01 765.362 824.219C779.694 806.303 731.032 854.668 713.612 869.599C676.986 900.993 638.406 917.585 590.21 920.438C573.78 921.411 557.426 921.261 541.532 916.571C526.09 912.015 512.275 903.756 497.175 898.374C461.754 885.749 421.477 886.091 384.464 886.091C368.161 886.091 352.051 887.258 335.785 888.138C316.246 889.194 297.553 894.576 278.122 895.872C253.793 897.494 228.156 899.74 203.739 898.26C180.473 896.85 161.216 889.28 139.365 881.996C126.917 877.847 114.086 873.068 106.041 861.979C95.3359 847.223 98.2519 824.851 98.4209 807.613C98.6452 784.736 105.03 783.41 122.419 769.057C127.317 765.014 170.021 730.185 169.619 730.046C148.966 722.897 132.969 705.91 117.073 691.604C111.533 686.617 100.766 670.083 92.2792 669.084C85.9168 668.336 92.0634 620.235 92.1654 615.743C92.762 589.496 90.299 537.32 116.391 520.547C120.898 517.649 130.266 549.696 133.224 553.985C141.04 565.318 144.576 551.635 145.507 544.886C146.146 540.251 158.91 501.008 161.885 504.169C166.874 509.47 160.827 520.436 171.325 519.523C182.849 518.521 196.767 498.164 207.834 501.326C211.745 502.443 213.018 512.041 219.207 508.946C239.12 498.989 251.138 477.62 273.118 469.707C289.123 463.945 312.583 478.194 327.255 482.787C342.111 487.437 360.494 493.772 376.389 490.521C380.104 489.761 383.764 487.373 384.578 483.469C388.101 466.559 389.862 448.988 393.108 431.947C395.296 420.457 394.606 406.318 398.453 395.325C400.273 390.126 409.469 396.116 412.556 397.258C421.511 400.57 460.185 404.874 462.713 416.252C464.924 426.199 469.268 431.726 476.248 439.909C495.709 462.725 506.269 476.645 536.641 476.645C545.612 476.645 558.489 479.644 565.189 472.551C567.813 469.772 567.236 466.722 567.236 463.111C567.236 454.872 568.908 447.63 571.33 439.795C577.326 420.397 564.991 416.46 557 400.898C545.64 378.777 532.433 359.004 532.433 333.226C532.433 308.405 546.168 286.443 539.484 260.663C536.442 248.927 534.48 234.805 534.48 222.789" stroke="#E2FF5D" stroke-width="3" stroke-linecap="round" />
        <path d="M483.3 243.262C483.3 316.062 468.969 387.12 468.969 459.813C468.969 473.153 466.922 486.64 466.922 499.621C466.922 515.011 464.412 531.092 473.518 544.205C488.906 566.363 511.804 579.306 531.978 554.441C542.58 541.373 539.298 519.168 563.141 524.187C586.082 529.017 614.305 527.226 637.524 524.756C644.486 524.015 660.591 520.503 667.55 524.187C686.917 534.441 618.907 562.448 622.625 549.436C623.654 545.832 659.797 541.173 664.593 540.565C679.388 538.69 697.916 538.566 712.475 541.248C720.849 542.79 731.014 542.977 731.014 552.394C731.014 571.072 736.079 587.017 746.596 602.664C757.003 618.148 779.867 639.866 780.147 659.759C780.526 686.675 777.018 713.119 776.167 739.942C775.309 766.951 776.469 794.018 776.053 821.035C775.891 831.539 773.654 852.855 759.22 853.336C731.233 854.269 702.945 851.393 675.056 854.359C669.821 854.916 654.824 858.531 655.267 849.241C655.999 833.867 701.521 788.21 700.306 821.035C699.676 838.029 664.67 844.437 653.106 847.08C603.217 858.484 549.294 853.336 498.54 853.336C420.011 853.336 341.763 857.43 263.223 857.43C242.266 857.43 221.281 857.758 200.327 857.43C165.472 856.886 162.374 817.783 158.928 790.213C157.23 776.631 155.743 763.079 155.743 749.382C155.743 746.211 155.952 741.586 153.241 739.146C149.099 735.419 136.211 739.187 130.267 735.62C119.221 728.993 120.624 707.082 120.94 695.699C121.275 683.645 161.691 717.135 165.866 720.266C169.064 722.665 192.593 746.501 192.593 738.691C192.593 732.891 190.289 728.013 188.499 722.541C181.539 701.262 173.915 680.588 165.979 659.646C157.71 637.825 149.534 615.755 143.801 593.111C142.883 589.483 136.179 571.225 139.82 567.179C141.164 565.686 146.038 565.344 148.009 563.767C157.582 556.109 164.846 546.127 175.192 539.314C184.091 533.454 193.132 529.108 200.782 521.458C209.234 513.006 214.174 502.85 221.255 493.479C223.126 491.002 225.349 485.601 225.349 490.977C225.349 498.795 225.739 506.717 225.235 514.52C223.758 537.414 217.626 561.204 213.521 583.784C212.378 590.067 213.088 579.925 213.066 578.553C212.889 567.616 211.018 556.891 211.018 545.911C211.018 525.801 211.182 488.018 235.13 479.148C248.51 474.193 264.137 470.343 278.122 466.41C281.188 465.548 298.076 461.108 290.633 469.481C287.035 473.529 279.09 476.194 274.369 478.693C263.182 484.616 253.243 491.12 243.774 499.621C230.225 511.784 214.781 525.162 202.943 538.973C200.429 541.906 205.565 533.563 206.355 532.831C221.894 518.443 246.722 512.161 265.156 502.35C301.909 482.791 339.244 463.893 375.706 444.004C387.691 437.467 401.491 431.907 415.286 431.607C424.721 431.402 434.842 432.827 444.175 431.493C450.86 430.538 439.549 416.241 432.233 418.528C422.268 421.642 416.685 451.454 411.192 460.268C409.547 462.908 395.096 482.788 402.434 482.788C416.132 482.788 423.915 439.736 425.977 431.152C434.84 394.265 444.402 356.419 444.402 318.214C444.402 279.485 436.213 163.59 436.213 202.318" stroke="#E2FF5D" stroke-width="3" stroke-linecap="round" />
        <path d="M595.902 228.933C595.902 259.982 595.902 291.032 595.902 322.082C595.902 349.055 589.096 374.251 585.779 400.786C584.047 414.64 584.831 429.054 583.505 442.982C581.378 465.314 552.631 470.844 535.622 478.694C522.576 484.716 511.042 492.215 497.18 496.665C476.852 503.189 455.147 503.261 434.057 503.261C409.583 503.261 384.973 504.804 360.926 499.622C351.066 497.497 320.928 495.072 331.013 495.072C333.873 495.072 337.365 489.796 337.041 486.883C336.096 478.378 290.592 482.789 285.633 482.789C274.498 482.789 172.816 491.893 183.613 515.886C191.483 533.375 200.008 552.397 217.392 562.176C230.546 569.575 275.931 574.914 260.839 574.914C229.608 574.914 198.469 577.346 167.463 581.056C141.4 584.174 116.176 590.846 90.2367 593.794C84.9453 594.395 63.0762 596.07 59.5283 600.504C55.5747 605.446 67.381 616.042 70.2193 620.863C91.412 656.857 110.682 693.838 133.228 728.911C151 756.556 154.865 793.591 184.409 812.392C211.1 829.378 245.716 836.959 276.989 836.959C286.759 836.959 380.033 840.743 380.033 832.41C380.033 829.55 372.754 830.039 372.754 834.912C372.754 840.611 373.584 842.332 378.896 844.693C397.072 852.771 424.074 854.237 443.611 856.408C464.841 858.767 485.728 857.987 506.961 861.526C519.735 863.655 532.744 867.668 545.745 867.668C555.142 867.668 564.421 859.54 571.79 854.474C590.582 841.555 604.199 822.476 623.198 809.663C628.375 806.171 633.93 802.259 640.031 800.564C641.555 800.141 645.477 800.804 646.627 799.654C650.293 795.988 648.047 782.865 651.404 777.59C661.059 762.418 683.908 748.535 699.855 741.194C710.53 736.281 710.546 736.312 710.546 724.248C710.546 714.789 714.524 694.447 707.134 687.057C696.141 676.064 674.236 675.228 659.707 675.228C654.137 675.228 644.768 680.21 645.035 672.726C645.528 658.911 655.408 643.238 664.484 633.374C671.355 625.905 679.115 619.144 685.525 611.309C686.848 609.691 686.639 605.157 687.344 603.234C690.191 595.47 695.767 588.719 700.424 581.966C707.854 571.192 725.354 554.716 714.186 540.111C704.197 527.049 683.954 529.875 669.716 529.875C650.123 529.875 637.136 530.813 620.013 540.566C608.354 547.208 595.506 561.25 581.571 562.517C568.509 563.705 557.162 562.053 545.176 556.944C520.573 546.457 524.179 517.085 526.751 493.935C528.453 478.62 531.105 472.553 514.013 472.553C505.214 472.553 510.401 452.406 511.055 447.076C513.943 423.568 516.06 400.518 516.06 376.788C516.06 342.506 516.551 312.482 526.296 279.659C532.669 258.19 548.815 233.375 548.815 210.508" stroke="#E2FF5D" stroke-width="3" stroke-linecap="round" />
        <path d="M457.921 206.62C457.921 241.79 455.625 277.801 458.042 312.856C461.034 356.237 458.65 406.026 484.48 443.336C500.178 466.012 526.701 482.962 549.537 497.794C564.59 507.571 580.031 517.067 597.782 520.698C613.129 523.838 631.315 524.343 646.027 518.505C650.233 516.836 661.897 516.832 658.697 513.632C655.987 510.922 634.959 513.613 631.894 513.632C605.752 513.792 579.716 515.825 553.557 515.825C545.269 515.825 538.346 511.23 530.41 509.246C524.771 507.837 523.686 499.396 529.435 497.185C536.303 494.544 545.7 498.012 552.461 499.5C568.339 502.993 583.741 508.235 599.731 511.317C639.584 519 683.124 524.597 723.754 524.597C742.718 524.597 739.382 518.902 741.907 500.718C745.81 472.62 729.486 469.328 704.383 475.012C670.086 482.777 637.282 498.914 604.848 512.17C589.914 518.274 574.071 523.48 559.405 530.079C550.147 534.246 566.431 539.315 569.03 540.435C594.71 551.497 622.904 564.094 643.346 583.806C647.829 588.129 661.379 602.681 654.311 610.122C648.133 616.625 636.096 617.851 627.996 619.381C603.562 623.994 578.77 626.353 553.923 627.178C513.391 628.523 472.681 626.541 438.184 603.543C416.66 589.193 395.566 574.077 372.396 562.364C307.789 529.706 233.896 528.983 162.848 528.983C155.19 528.983 149.487 530.917 141.893 532.394C129.294 534.844 107.663 535.206 97.1812 543.359C85.7237 552.27 102.35 563.513 109.486 570.649C116.421 577.584 131.822 599.157 143.233 599.157C163.165 599.157 142.253 558.336 138.603 552.252C133.756 544.174 110.56 516.275 101.567 534.952C85.2083 568.928 86.2973 614.23 84.1453 650.813C81.7191 692.059 87.8508 728.145 96.0847 768.014C100.578 789.769 104.363 811.091 104.856 833.315C105.069 842.87 120.971 849.616 127.761 853.539C160.178 872.269 198.94 868.879 233.753 861.092C246.958 858.138 283.18 848.215 295.643 858.412C321.01 879.167 340.275 910.492 372.518 922.007C401.906 932.503 429.223 921.608 455.728 909.337C483.4 896.526 511.011 884.125 539.06 872.179C578.912 855.204 625.082 842.281 667.712 854.026C688.551 859.767 710.2 866.696 732.039 866.696C741.297 866.696 740.605 860.366 743.491 852.564C757.947 813.48 781.293 777.966 792.954 737.8C799.004 716.962 804.45 679.253 793.441 658.854C772.489 620.03 716.688 613.975 716.688 563.583C716.688 551.09 718.857 539.504 724.364 528.252C727.812 521.206 732.89 514.13 734.11 506.201C736.437 491.074 681.182 483.012 672.586 480.616C627.816 468.139 579.538 449.771 532.603 447.966C516.763 447.356 500.095 449.689 484.358 447.722C467.176 445.574 496.892 413.502 498.856 411.538C510.628 399.766 523.486 389.345 536.501 379.01C542.008 374.637 546.085 371.119 547.953 364.268C556.303 333.652 564.308 305.017 565.253 272.896C565.787 254.736 563.285 249.223 553.314 236.103C541.956 221.158 541.979 213.443 553.192 198.579C564.709 183.312 575.907 167.65 588.523 153.258C588.884 152.846 598.683 142.046 596.076 143.512C583.401 150.642 589.497 186.681 589.497 197.117C589.497 234.641 589.497 272.165 589.497 309.688C589.497 373.193 591.69 437.398 591.69 500.474" stroke="#E2FF5D" stroke-width="3" stroke-linecap="round" />
        <path d="M416.249 204.43C416.249 256.654 416.249 308.879 416.249 361.103C416.249 386.673 414.912 412.503 417.954 437.857C420.378 458.055 418.288 479.048 421.731 499.015C422.724 504.775 425.891 509.329 427.092 514.731C427.626 517.135 401.079 525.715 413.325 528.498C443.222 535.293 469.867 539.08 500.799 537.514C524.542 536.312 544.561 527.823 566.587 520.214C572.187 518.279 576.54 516.063 582.425 515.828C591.206 515.477 595.391 508.371 596.192 500.355C596.967 492.612 606.601 471.341 602.284 477.817C599.678 481.726 594.835 487.155 590.71 489.513C585.807 492.314 587.039 506.766 587.299 511.442C587.423 513.674 628.482 519.627 633.472 520.214C656.188 522.886 678.737 524.804 701.332 527.28C726.224 530.008 749.857 526.793 774.674 526.793C780.307 526.793 790.498 524.715 795.628 527.28C802.27 530.601 800.074 547.89 800.014 553.108C799.762 575.292 798.292 597.648 797.699 619.871C797.135 641.058 796.422 662.604 789.05 682.614C781.888 702.052 779.194 722.887 774.186 742.92C770.916 756.002 767.323 772.482 753.962 778.981C742.86 784.383 728.309 781.685 716.682 785.56" stroke="#E2FF5D" stroke-width="3" stroke-linecap="round" />
        <path d="M505.021 232.605C505.021 287.757 505.021 342.908 505.021 398.06C505.021 418.517 505.021 438.974 505.021 459.431C505.021 464.054 506.195 470.662 504.613 475.232C501.085 485.423 485.046 482.199 476.884 483.184C424.873 489.461 375.007 496.174 322.337 494.601C302.885 494.021 283.493 492.981 264.025 493.174C254.948 493.264 252.727 494.615 247.816 501.737C242.17 509.924 225.007 526.272 226.101 537.214C227.426 550.457 247.736 566.131 257.398 572.996C277.608 587.356 299.642 592.538 321.317 603.376C334.767 610.1 343.138 620.657 337.628 636.304C329.946 658.122 306.497 657.517 286.758 658.222C272.49 658.731 258.303 659.649 244.044 660.159C238.011 660.374 222.202 668.914 218.863 673.921C214.637 680.261 219.007 681.459 224.266 684.014C238.766 691.056 251.298 703.109 265.35 711.436C275.735 717.59 285.866 717.848 297.666 720.713C305.315 722.571 312.509 726.058 320.094 727.646C329.255 729.563 337.765 729.888 347.109 729.888C356.37 729.888 364.362 722.607 372.901 719.286C396.573 710.08 416.804 707.868 442.631 707.868C451.842 707.868 463.215 706.512 471.787 703.179C483.666 698.559 463.892 686.184 460.165 684.014C432.458 667.876 393.987 667.499 362.91 667.499C335.208 667.499 308.009 673.004 280.336 673.004C261.769 673.004 241.465 675.274 223.247 671.169C219.533 670.332 200.944 668.717 214.48 671.984C243.237 678.926 274.964 673.602 304.191 675.246C325.984 676.472 347.502 680.996 369.333 682.28C393.204 683.685 413.103 681.475 434.475 668.926C462.288 652.595 484.3 628.695 514.297 615.303C535.376 605.893 555.631 605.104 578.013 602.866C585.539 602.113 592.763 601.439 600.338 601.439C601.107 601.439 608.967 601.831 608.392 600.623C598.729 580.331 578.738 556.163 557.726 547.408C538.822 539.532 516.919 538.267 496.865 535.379C475.215 532.261 453.484 527.969 431.621 526.612C362.914 522.347 294.289 529.874 225.694 529.874C197.9 529.874 142.127 524.07 129.255 558.826C128.156 561.792 129.668 563.71 131.497 565.962C146.242 584.11 165.243 598.892 184.202 612.347C235.963 649.08 297.807 670.637 353.634 700.528C394.16 722.228 434.031 739.074 477.496 753.743C497.346 760.443 519.155 766.925 538.152 775.865C544.904 779.043 568.761 786.212 569.245 794.929C569.538 800.193 571.788 805.825 570.265 811.036C565.984 825.68 551.987 834.186 538.866 839.784C518.835 848.331 489.422 855.607 483.001 828.57C474.66 793.453 492.979 769.742 514.196 742.631C545.106 703.135 572.315 660.683 596.77 616.934C604.272 603.514 625.229 576.886 615.12 559.642C612.646 555.421 605.945 552.954 605.945 559.54C605.945 608.94 624.311 658.736 631.227 707.461C635.565 738.019 637.449 768.993 638.567 799.822C639.135 815.457 636.906 832.598 639.995 848.042C642.527 860.702 646.585 875.826 659.568 881.785C672.454 887.7 683.682 890.701 694.127 880.256C708.821 865.562 722.981 851.643 734.803 834.483C749.609 812.99 758.06 789.091 760.9 763.122C764.675 728.606 741.243 697.579 722.365 670.965C701.197 641.121 682.476 608.351 654.675 584.108C627.348 560.279 602.495 532.693 572.1 512.645C554.925 501.317 537.821 494.321 523.778 478.494C503.372 455.497 506.856 428.022 506.856 398.978C506.856 335.448 505.021 272.185 505.021 208.75" stroke="#E2FF5D" stroke-width="3" stroke-linecap="round" />
        <path d="M605.567 241.289C605.567 305.695 605.567 370.102 605.567 434.509C605.567 454.093 606.599 475.741 616.181 493.536C622.647 505.545 646.605 507.252 658.204 504.475C677.477 499.86 693.772 494.727 713.874 494.727C733.679 494.727 771.862 485.83 782.541 508.374C785.772 515.196 785.947 518.64 792.721 522.996C795.313 524.661 799.808 527.586 800.411 530.902C801.019 534.242 798.65 542.424 800.953 544.982C806.794 551.473 814.995 532.193 816.116 529.819C820.264 521.035 818.065 508.138 818.065 498.626C818.065 484.528 808.601 475.675 795.104 473.716C783.19 471.986 767.065 469.573 754.922 471.441C740.097 473.722 773.573 487.788 775.609 488.879C791.471 497.382 810.529 506.548 827.705 512.273C844.92 518.011 841.196 548.789 838.535 562.094C832.845 590.545 827.813 619.435 827.813 648.74C827.813 665.328 820.498 676.196 804.419 677.983C779.79 680.72 805.804 758.431 807.343 767.661C810.753 788.12 815.01 806.069 808.318 826.147C802.884 842.449 799.328 859.085 795.646 875.86C792.328 890.973 787.388 900.388 772.251 904.995C764.904 907.231 759.652 908.161 753.298 911.926C740.814 919.324 723.923 917.775 709.975 917.775C676.62 917.775 642.988 916.388 609.899 920.158C553.81 926.548 495.901 932.427 439.424 925.14C414.344 921.904 388.234 923.624 362.959 923.624C350.901 923.624 338.842 923.624 326.784 923.624C311.63 923.624 297.426 929.472 282.92 929.472C254.262 929.472 227.41 923.624 198.549 923.624C174.577 923.624 151.741 910.92 127.932 906.511C107.908 902.803 91.9489 895.222 77.353 880.626C60.2678 863.54 58.7215 839.014 55.9082 816.508C52.9861 793.131 51.9008 770.062 51.9008 746.325C51.9008 720.765 60.6582 693.719 63.4897 668.235C68.9702 618.911 51.9008 573.75 51.9008 525.487C51.9008 514.834 50.7319 505.706 56.2331 496.244C62.2406 485.911 65.8129 486.89 77.353 484.005C107.319 476.514 136.876 486.691 166.923 486.929C206.89 487.246 246.724 486.86 286.602 485.088C321.185 483.551 355.478 480.962 389.819 476.207C401.74 474.556 432.059 475.041 432.059 457.686C432.059 426.936 426.529 397.628 423.286 367.142C421.191 347.452 422.311 327.365 422.311 307.573C422.311 279.774 422.311 251.975 422.311 224.176C422.311 204.875 412.564 188.649 412.564 169.156" stroke="#E2FF5D" stroke-width="3" stroke-linecap="round" />
    </g>
    <defs>
        <clipPath id="clip0_1101_3000">
            <rect width="898" height="1593" fill="white" />
        </clipPath>
    </defs>
</svg>
        