<svg width="2380" height="1530" viewBox="0 0 2380 1530" fill="none" xmlns="http://www.w3.org/2000/svg" preserveAspectRatio="none">
    <rect width="2380" height="1530" fill="white" />
    <g clip-path="url(#clip0_1100_2759)">
        <path d="M2337 1186L2337 470.073L1938.26 470.073L1938.26 338.043L1628.12 338.043L1628.12 482.099L338.948 482.098L338.948 42.0001L41.0001 42L41 1186L2337 1186Z" fill="#1D1D1B" />
        <path d="M494.354 377.709C496.811 377.709 498.309 376.321 498.309 373.456L498.309 367.15L496.946 367.15L496.946 373.279C496.946 375.582 496.047 376.587 494.354 376.587C492.661 376.587 491.777 375.553 491.777 373.279L491.777 367.15L490.414 367.15L490.414 373.456C490.414 376.321 491.897 377.709 494.354 377.709Z" fill="white" />
        <path d="M504.381 377.487C507.872 377.487 509.684 375.45 509.684 372.304C509.684 368.627 507.452 367.15 504.052 367.15L500.906 367.15L500.906 377.487L504.381 377.487ZM502.269 368.273L504.156 368.273C507.018 368.273 508.261 369.72 508.261 372.304C508.261 375.198 506.733 376.35 504.216 376.35L502.269 376.35L502.269 368.273Z" fill="white" />
        <path d="M514.652 371.846L519.296 367.15L517.603 367.15L513.753 371.064C513.543 371.27 513.318 371.477 513.124 371.684L513.124 367.15L511.775 367.15L511.775 377.487L513.124 377.487L513.124 373.382L513.723 372.777L518.157 377.487L520 377.487L514.652 371.846Z" fill="white" />
        <path d="M525.632 377.487L525.632 372.969L528.209 372.969C529.767 372.969 530.411 373.471 530.411 375.11L530.411 377.487L531.774 377.487L531.774 374.741C531.774 373.382 531.055 372.54 530.066 372.378C531.01 372.097 531.999 371.167 531.999 369.868C531.999 368.125 530.725 367.15 528.718 367.15L524.269 367.15L524.269 377.487L525.632 377.487ZM525.632 368.273L528.388 368.273C529.797 368.273 530.605 368.863 530.605 370.03C530.605 371.197 529.797 371.832 528.388 371.832L525.632 371.832L525.632 368.273Z" fill="white" />
        <path d="M538.066 377.709C540.523 377.709 542.021 376.321 542.021 373.456L542.021 367.15L540.658 367.15L540.658 373.279C540.658 375.582 539.759 376.587 538.066 376.587C536.374 376.587 535.49 375.553 535.49 373.279L535.49 367.15L534.126 367.15L534.126 373.456C534.126 376.321 535.61 377.709 538.066 377.709Z" fill="white" />
        <path d="M545.981 377.487L545.981 368.45L551.464 377.487L553.367 377.487L553.367 367.15L551.989 367.15L551.989 375.966L546.67 367.15L544.618 367.15L544.618 377.487L545.981 377.487Z" fill="white" />
        <path d="M559.534 377.487C563.024 377.487 564.837 375.45 564.837 372.304C564.837 368.627 562.605 367.15 559.204 367.15L556.058 367.15L556.058 377.487L559.534 377.487ZM557.422 368.273L559.309 368.273C562.17 368.273 563.414 369.72 563.414 372.304C563.414 375.198 561.886 376.35 559.369 376.35L557.422 376.35L557.422 368.273Z" fill="white" />
        <path d="M571.257 377.709C572.74 377.709 574.014 376.985 574.583 376.055L574.583 377.487L575.706 377.487L575.706 372.083L571.167 372.083L571.167 373.22L574.463 373.22L574.463 373.412C574.463 375.509 573.22 376.587 571.302 376.587C569.175 376.587 567.722 374.8 567.722 372.378C567.722 369.513 569.28 368.051 571.377 368.051C572.86 368.051 573.999 368.908 574.208 370.148L575.661 370.148C575.422 368.243 573.684 366.914 571.377 366.914C568.651 366.914 566.284 368.819 566.284 372.378C566.284 375.39 568.186 377.709 571.257 377.709Z" fill="white" />
        <path d="M586.752 377.487L582.542 367.15L580.894 367.15L576.7 377.487L578.138 377.487L579.336 374.416L584.04 374.416L585.239 377.487L586.752 377.487ZM581.389 369.159C581.493 368.893 581.598 368.627 581.688 368.376C581.793 368.627 581.883 368.893 581.988 369.159L583.606 373.294L579.771 373.294L581.389 369.159Z" fill="white" />
        <path d="M589.533 377.487L589.533 368.45L595.016 377.487L596.918 377.487L596.918 367.15L595.54 367.15L595.54 375.966L590.222 367.15L588.17 367.15L588.17 377.487L589.533 377.487Z" fill="white" />
        <path d="M603.939 377.709C605.422 377.709 606.696 376.985 607.265 376.055L607.265 377.487L608.388 377.487L608.388 372.083L603.849 372.083L603.849 373.22L607.145 373.22L607.145 373.412C607.145 375.509 605.902 376.587 603.984 376.587C601.857 376.587 600.404 374.8 600.404 372.378C600.404 369.513 601.962 368.051 604.059 368.051C605.542 368.051 606.681 368.908 606.89 370.148L608.343 370.148C608.104 368.243 606.366 366.914 604.059 366.914C601.333 366.914 598.966 368.819 598.966 372.378C598.966 375.39 600.868 377.709 603.939 377.709Z" fill="white" />
        <path d="M422.711 439C447.751 439 463.02 388.207 463.02 283.378L463.02 52.6457L449.125 52.6457L449.125 276.893C449.125 361.189 439.964 397.933 422.711 397.933C405.457 397.933 396.449 360.108 396.449 276.893L396.449 52.6457L382.555 52.6457L382.555 283.378C382.555 388.207 397.671 439 422.711 439Z" fill="#1D1D1B" />
        <path d="M524.912 430.895C560.488 430.895 578.962 356.326 578.962 241.23C578.962 106.681 556.212 52.6457 521.553 52.6457L489.489 52.6457L489.489 430.895L524.912 430.895ZM503.383 93.7127L522.622 93.7127C551.785 93.7127 564.457 146.668 564.457 241.23C564.457 347.14 548.884 389.287 523.232 389.287L503.383 389.287L503.383 93.7127Z" fill="#1D1D1B" />
        <path d="M629.591 224.479L676.923 52.6457L659.67 52.6457L620.43 195.84C618.292 203.405 616.002 210.97 614.017 218.535L614.017 52.6457L600.275 52.6457L600.275 430.895L614.017 430.895L614.017 280.676L620.124 258.521L665.319 430.895L684.099 430.895L629.591 224.479Z" fill="#1D1D1B" />
        <path d="M741.506 430.895L741.506 265.546L767.768 265.546C783.647 265.546 790.213 283.918 790.213 343.897L790.213 430.895L804.107 430.895L804.107 330.389C804.107 280.676 796.778 249.876 786.701 243.932C796.32 233.665 806.397 199.622 806.397 152.071C806.397 88.3092 793.419 52.6457 772.959 52.6457L727.612 52.6457L727.612 430.895L741.506 430.895ZM741.506 93.7127L769.6 93.7127C783.953 93.7127 792.198 115.327 792.198 158.015C792.198 200.703 783.953 223.938 769.6 223.938L741.506 223.938L741.506 93.7127Z" fill="#1D1D1B" />
        <path d="M868.241 439C893.281 439 908.55 388.207 908.55 283.378L908.55 52.6457L894.655 52.6457L894.655 276.893C894.655 361.189 885.494 397.933 868.241 397.933C850.987 397.933 841.979 360.108 841.979 276.893L841.979 52.6457L828.085 52.6457L828.085 283.378C828.085 388.207 843.201 439 868.241 439Z" fill="#1D1D1B" />
        <path d="M948.913 430.895L948.913 100.197L1004.8 430.895L1024.19 430.895L1024.19 52.6457L1010.14 52.6457L1010.14 375.238L955.937 52.6457L935.019 52.6457L935.019 430.895L948.913 430.895Z" fill="#1D1D1B" />
        <path d="M1087.04 430.895C1122.62 430.895 1141.09 356.326 1141.09 241.23C1141.09 106.681 1118.34 52.6457 1083.68 52.6457L1051.62 52.6457L1051.62 430.895L1087.04 430.895ZM1065.51 93.7127L1084.75 93.7127C1113.92 93.7127 1126.59 146.668 1126.59 241.23C1126.59 347.14 1111.01 389.287 1085.36 389.287L1065.51 389.287L1065.51 93.7127Z" fill="#1D1D1B" />
        <path d="M1206.53 439C1221.65 439 1234.63 412.523 1240.43 378.48L1240.43 430.895L1251.88 430.895L1251.88 233.124L1205.62 233.124L1205.62 274.732L1239.21 274.732L1239.21 281.757C1239.21 358.487 1226.53 397.933 1206.99 397.933C1185.31 397.933 1170.5 332.55 1170.5 243.932C1170.5 139.103 1186.38 85.6074 1207.75 85.6074C1222.87 85.6074 1234.47 116.948 1236.61 162.338L1251.42 162.338C1248.98 92.632 1231.27 44 1207.75 44C1179.97 44 1155.84 113.706 1155.84 243.932C1155.84 354.164 1175.23 439 1206.53 439Z" fill="#1D1D1B" />
        <path d="M1364.46 430.895L1321.55 52.6457L1304.76 52.6457L1262 430.895L1276.66 430.895L1288.88 318.501L1336.82 318.501L1349.03 430.895L1364.46 430.895ZM1309.79 126.134C1310.86 116.408 1311.93 106.681 1312.85 97.4952C1313.92 106.681 1314.83 116.408 1315.9 126.134L1332.39 277.434L1293.3 277.434L1309.79 126.134Z" fill="#1D1D1B" />
        <path d="M1392.8 430.895L1392.8 100.197L1448.69 430.895L1468.08 430.895L1468.08 52.6457L1454.03 52.6457L1454.03 375.238L1399.83 52.6457L1378.91 52.6457L1378.91 430.895L1392.8 430.895Z" fill="#1D1D1B" />
        <path d="M1539.64 439C1554.75 439 1567.73 412.523 1573.53 378.48L1573.53 430.895L1584.98 430.895L1584.98 233.124L1538.72 233.124L1538.72 274.732L1572.31 274.732L1572.31 281.757C1572.31 358.487 1559.64 397.933 1540.09 397.933C1518.41 397.933 1503.6 332.55 1503.6 243.932C1503.6 139.103 1519.48 85.6074 1540.86 85.6074C1555.97 85.6074 1567.58 116.948 1569.72 162.338L1584.53 162.338C1582.08 92.632 1564.37 44 1540.86 44C1513.07 44 1488.94 113.706 1488.94 243.932C1488.94 354.164 1508.34 439 1539.64 439Z" fill="#1D1D1B" />
        <path d="M2057.55 425.997L2057.55 383.316L1998.89 383.316C2000 369.445 2006.24 351.839 2016.63 325.696L2024.46 305.956C2045.56 252.605 2055.64 212.591 2055.64 156.572C2055.64 87.2148 2040.61 44 2019.83 44C1998.89 44 1982.58 90.4159 1982.58 170.443L1982.58 182.714L1996.97 182.714L1996.97 175.778C1996.97 114.424 2006.24 82.4131 2019.83 82.4131C2033.26 82.4131 2041.09 114.424 2041.09 157.105C2041.09 204.588 2029.42 238.733 2019.99 263.275L2004.8 302.222C1987.38 346.503 1981.46 377.981 1981.46 425.997L2057.55 425.997Z" fill="#1D1D1B" />
        <path d="M2113.89 434C2139.3 434 2154.49 364.109 2154.49 239.8C2154.49 115.491 2138.66 44 2113.89 44C2088.79 44 2073.28 117.092 2073.28 239.8C2073.28 362.509 2087.99 434 2113.89 434ZM2113.89 396.12C2097.74 396.12 2087.83 347.037 2087.83 239.8C2087.83 132.564 2096.94 82.4131 2113.89 82.4131C2130.35 82.4131 2139.78 132.03 2139.78 239.8C2139.78 347.57 2130.19 396.12 2113.89 396.12Z" fill="#1D1D1B" />
        <path d="M2246.29 425.997L2246.29 383.316L2187.63 383.316C2188.75 369.445 2194.98 351.839 2205.37 325.696L2213.2 305.956C2234.31 252.605 2244.38 212.591 2244.38 156.572C2244.38 87.2148 2229.35 44 2208.57 44C2187.63 44 2171.32 90.4159 2171.32 170.443L2171.32 182.714L2185.71 182.714L2185.71 175.778C2185.71 114.424 2194.98 82.4131 2208.57 82.4131C2222 82.4131 2229.83 114.424 2229.83 157.105C2229.83 204.588 2218.16 238.733 2208.73 263.275L2193.54 302.222C2176.12 346.503 2170.2 377.981 2170.2 425.997L2246.29 425.997Z" fill="#1D1D1B" />
        <path d="M2337 425.997L2337 383.316L2278.33 383.316C2279.45 369.445 2285.68 351.839 2296.07 325.696L2303.91 305.956C2325.01 252.605 2335.08 212.591 2335.08 156.572C2335.08 87.2148 2320.05 44 2299.27 44C2278.33 44 2262.02 90.4159 2262.02 170.443L2262.02 182.714L2276.41 182.714L2276.41 175.778C2276.41 114.424 2285.68 82.4131 2299.27 82.4131C2312.7 82.4131 2320.53 114.424 2320.53 157.105C2320.53 204.588 2308.86 238.733 2299.43 263.275L2284.24 302.222C2266.82 346.503 2260.9 377.981 2260.9 425.997L2337 425.997Z" fill="#1D1D1B" />
        <path d="M1652 167.06C1664.43 167.06 1673.11 151.573 1674.53 126.489L1667.42 126.489C1666 143.324 1660.46 154.266 1651.85 154.266C1641.45 154.266 1634.11 134.906 1634.11 104.941C1634.11 75.1439 1641.23 56.9626 1651.85 56.9626C1660.39 56.9626 1665.62 67.4 1666.97 84.7395L1674.46 84.7395C1673.48 61.6762 1664.8 44 1652.15 44C1637.71 44 1626.93 68.2417 1626.93 104.941C1626.93 143.492 1637.03 167.06 1652 167.06Z" fill="#1D1D1B" />
        <path d="M1705.72 167.06C1719.79 167.06 1730.57 142.65 1730.57 105.614C1730.57 68.5784 1719.94 44 1705.72 44C1691.57 44 1680.87 68.5784 1680.87 105.614C1680.87 142.65 1691.65 167.06 1705.72 167.06ZM1705.72 154.266C1695.09 154.266 1688.05 135.748 1688.05 105.614C1688.05 75.4805 1695.31 56.9626 1705.72 56.9626C1716.2 56.9626 1723.38 75.4805 1723.38 105.614C1723.38 135.748 1716.35 154.266 1705.72 154.266Z" fill="#1D1D1B" />
        <path d="M1747.54 164.535L1747.54 61.5079L1765.43 164.535L1773.07 164.535L1790.88 61.3396L1790.88 164.535L1797.61 164.535L1797.61 46.6935L1787.14 46.6935L1771.57 136.422C1770.82 140.798 1770.15 144.67 1769.4 149.216L1751.43 46.6935L1740.81 46.6935L1740.81 164.535L1747.54 164.535Z" fill="#1D1D1B" />
        <path d="M1811.12 46.6935L1811.12 164.535L1817.93 164.535L1817.93 46.6935L1811.12 46.6935Z" fill="#1D1D1B" />
        <path d="M1838.32 164.535L1838.32 61.5079L1865.72 164.535L1875.22 164.535L1875.22 46.6935L1868.34 46.6935L1868.34 147.196L1841.77 46.6935L1831.51 46.6935L1831.51 164.535L1838.32 164.535Z" fill="#1D1D1B" />
        <path d="M1910.3 167.06C1917.71 167.06 1924.07 158.811 1926.92 148.206L1926.92 164.535L1932.53 164.535L1932.53 102.921L1909.85 102.921L1909.85 115.883L1926.32 115.883L1926.32 118.072C1926.32 141.977 1920.11 154.266 1910.53 154.266C1899.9 154.266 1892.64 133.896 1892.64 106.288C1892.64 73.6288 1900.42 56.9626 1910.9 56.9626C1918.31 56.9626 1924 66.7266 1925.05 80.8676L1932.31 80.8676C1931.11 59.1511 1922.43 44 1910.9 44C1897.28 44 1885.45 65.7165 1885.45 106.288C1885.45 140.63 1894.96 167.06 1910.3 167.06Z" fill="#1D1D1B" />
        <path d="M1657.95 317C1676.8 317 1688.09 300.412 1688.09 280.118C1688.09 261.412 1679.21 250.824 1667.04 246.235L1653.45 241.294C1644.47 237.941 1640.08 231.588 1640.08 221C1640.08 209.706 1647.42 201.588 1657.4 201.588C1668.14 201.588 1675.26 210.765 1675.92 225.412L1686.11 225.412C1685.24 202.471 1674.17 188 1657.62 188C1641.4 188 1629.56 202.471 1629.56 222.412C1629.56 241.294 1639.2 252.059 1650.93 256.471L1662.33 260.706C1671.43 264.059 1677.56 269.353 1677.56 281.176C1677.56 294.588 1670.66 303.588 1658.06 303.588C1645.89 303.588 1637.78 292.471 1637.12 274.647L1626.93 274.647C1627.15 300.765 1639.31 317 1657.95 317Z" fill="#1D1D1B" />
        <path d="M1734.09 317C1754.69 317 1770.47 291.412 1770.47 252.588C1770.47 213.765 1754.91 188 1734.09 188C1713.37 188 1697.7 213.765 1697.7 252.588C1697.7 291.412 1713.48 317 1734.09 317ZM1734.09 303.588C1718.52 303.588 1708.22 284.176 1708.22 252.588C1708.22 221 1718.85 201.588 1734.09 201.588C1749.43 201.588 1759.95 221 1759.95 252.588C1759.95 284.176 1749.65 303.588 1734.09 303.588Z" fill="#1D1D1B" />
        <path d="M1817.14 317C1837.75 317 1853.53 291.412 1853.53 252.588C1853.53 213.765 1837.97 188 1817.14 188C1796.43 188 1780.76 213.765 1780.76 252.588C1780.76 291.412 1796.54 317 1817.14 317ZM1817.14 303.588C1801.58 303.588 1791.28 284.176 1791.28 252.588C1791.28 221 1801.91 201.588 1817.14 201.588C1832.49 201.588 1843.01 221 1843.01 252.588C1843.01 284.176 1832.71 303.588 1817.14 303.588Z" fill="#1D1D1B" />
        <path d="M1878.5 314.353L1878.5 206.353L1918.61 314.353L1932.53 314.353L1932.53 190.824L1922.45 190.824L1922.45 296.176L1883.54 190.824L1868.52 190.824L1868.52 314.353L1878.5 314.353Z" fill="#1D1D1B" />
    </g>
    <path d="M550.407 1493V1462.39H481.474C482.788 1452.44 490.114 1439.81 502.323 1421.06L511.526 1406.9C536.32 1368.63 548.153 1339.93 548.153 1299.75C548.153 1250 530.497 1219 506.079 1219C481.474 1219 462.315 1252.29 462.315 1309.7V1318.5H479.22V1313.52C479.22 1269.51 490.114 1246.55 506.079 1246.55C521.857 1246.55 531.061 1269.51 531.061 1300.13C531.061 1334.19 517.349 1358.68 506.267 1376.28L488.423 1404.22C467.95 1435.98 461 1458.56 461 1493H550.407Z" fill="#1D1D1B" />
    <path d="M656.979 1493V1462.39H588.045C589.36 1452.44 596.686 1439.81 608.895 1421.06L618.098 1406.9C642.892 1368.63 654.725 1339.93 654.725 1299.75C654.725 1250 637.069 1219 612.651 1219C588.045 1219 568.887 1252.29 568.887 1309.7V1318.5H585.791V1313.52C585.791 1269.51 596.686 1246.55 612.651 1246.55C628.429 1246.55 637.633 1269.51 637.633 1300.13C637.633 1334.19 623.921 1358.68 612.839 1376.28L594.995 1404.22C574.522 1435.98 567.572 1458.56 567.572 1493H656.979Z" fill="#1D1D1B" />
    <path d="M698.937 1493V1448.61H677.525V1493H698.937Z" fill="#1D1D1B" />
    <path d="M748.343 1493C750.033 1402.3 769.755 1316.58 795.676 1258.03V1225.12H708.71V1255.74H780.086C777.644 1260.71 775.015 1266.45 772.573 1272.96C750.784 1325.39 734.255 1397.71 730.687 1493H748.343Z" fill="#1D1D1B" />
    <path d="M820 1493V1448.61H798.587V1493H820Z" fill="#1D1D1B" />
    <path d="M47.142 1285.6L47.142 1257.14L58.751 1257.14C65.7704 1257.14 68.6726 1260.3 68.6726 1270.63L68.6726 1285.6L74.8146 1285.6L74.8146 1268.3C74.8146 1259.74 71.5749 1254.44 67.1203 1253.42C71.3724 1251.65 75.827 1245.79 75.827 1237.6C75.827 1226.63 70.09 1220.49 61.0458 1220.49L41 1220.49L41 1285.6L47.142 1285.6ZM47.142 1227.56L59.5609 1227.56C65.9054 1227.56 69.55 1231.28 69.55 1238.63C69.55 1245.98 65.9054 1249.98 59.5609 1249.98L47.142 1249.98L47.142 1227.56Z" fill="#1D1D1B" />
    <path d="M103.165 1287C114.234 1287 120.983 1278.26 120.983 1260.21L120.983 1220.49L114.841 1220.49L114.841 1259.09C114.841 1273.6 110.792 1279.93 103.165 1279.93C95.538 1279.93 91.5558 1273.42 91.5558 1259.09L91.5558 1220.49L85.4138 1220.49L85.4138 1260.21C85.4138 1278.26 92.0958 1287 103.165 1287Z" fill="#1D1D1B" />
    <path d="M138.826 1285.6L138.826 1228.67L163.529 1285.6L172.101 1285.6L172.101 1220.49L165.891 1220.49L165.891 1276.02L141.931 1220.49L132.684 1220.49L132.684 1285.6L138.826 1285.6Z" fill="#1D1D1B" />
    <path d="M199.886 1285.6C215.612 1285.6 223.779 1272.77 223.779 1252.95C223.779 1229.79 213.722 1220.49 198.401 1220.49L184.227 1220.49L184.227 1285.6L199.886 1285.6ZM190.369 1227.56L198.874 1227.56C211.765 1227.56 217.367 1236.67 217.367 1252.95C217.367 1271.19 210.483 1278.44 199.144 1278.44L190.369 1278.44L190.369 1227.56Z" fill="#1D1D1B" />
    <path d="M252.706 1287C259.388 1287 265.125 1282.44 267.69 1276.58L267.69 1285.6L272.752 1285.6L272.752 1251.56L252.301 1251.56L252.301 1258.72L267.15 1258.72L267.15 1259.93C267.15 1273.14 261.548 1279.93 252.909 1279.93C243.324 1279.93 236.777 1268.67 236.777 1253.42C236.777 1235.37 243.797 1226.16 253.246 1226.16C259.928 1226.16 265.058 1231.56 266.002 1239.37L272.549 1239.37C271.47 1227.37 263.64 1219 253.246 1219C240.962 1219 230.298 1231 230.298 1253.42C230.298 1272.4 238.87 1287 252.706 1287Z" fill="#1D1D1B" />
    <path d="M322.516 1285.6L303.55 1220.49L296.125 1220.49L277.227 1285.6L283.707 1285.6L289.106 1266.26L310.299 1266.26L315.699 1285.6L322.516 1285.6ZM298.353 1233.14C298.825 1231.47 299.298 1229.79 299.703 1228.21C300.175 1229.79 300.58 1231.47 301.053 1233.14L308.342 1259.19L291.063 1259.19L298.353 1233.14Z" fill="#1D1D1B" />
    <path d="M335.047 1285.6L335.047 1228.67L359.75 1285.6L368.322 1285.6L368.322 1220.49L362.112 1220.49L362.112 1276.02L338.152 1220.49L328.905 1220.49L328.905 1285.6L335.047 1285.6Z" fill="#1D1D1B" />
    <path d="M399.954 1287C406.636 1287 412.373 1282.44 414.938 1276.58L414.938 1285.6L420 1285.6L420 1251.56L399.549 1251.56L399.549 1258.72L414.398 1258.72L414.398 1259.93C414.398 1273.14 408.796 1279.93 400.157 1279.93C390.573 1279.93 384.026 1268.67 384.026 1253.42C384.026 1235.37 391.045 1226.16 400.494 1226.16C407.176 1226.16 412.306 1231.56 413.251 1239.37L419.798 1239.37C418.718 1227.37 410.888 1219 400.494 1219C388.21 1219 377.546 1231 377.546 1253.42C377.546 1272.4 386.118 1287 399.954 1287Z" fill="#1D1D1B" />
    <path d="M48.0238 1489.2L48.0238 1412.52L62.0714 1412.52C71.8739 1412.52 80.5958 1401.13 80.5958 1362.41C80.5958 1323.44 71.488 1312.05 62.0714 1312.05L41 1312.05L41 1489.2L48.0238 1489.2ZM48.0238 1331.28L61.9943 1331.28C70.253 1331.28 73.4176 1343.43 73.4176 1362.41C73.4176 1381.14 70.253 1393.29 61.9942 1393.29L48.0238 1393.29L48.0238 1331.28Z" fill="#1D1D1B" />
    <path d="M96.6411 1489.2L96.6411 1411.76L109.917 1411.76C117.944 1411.76 121.263 1420.37 121.263 1448.46L121.263 1489.2L128.287 1489.2L128.287 1442.13C128.287 1418.85 124.582 1404.42 119.488 1401.64C124.35 1396.83 129.445 1380.89 129.445 1358.62C129.445 1328.75 122.884 1312.05 112.541 1312.05L89.6173 1312.05L89.6173 1489.2L96.6411 1489.2ZM96.6412 1331.28L110.843 1331.28C118.099 1331.28 122.266 1341.41 122.266 1361.4C122.266 1381.39 118.099 1392.27 110.843 1392.27L96.6411 1392.27L96.6412 1331.28Z" fill="#1D1D1B" />
    <path d="M176.993 1489.2L176.993 1469.72L147.972 1469.72L147.972 1408.73L174.832 1408.73L174.832 1389.24L147.972 1389.24L147.972 1331.28L176.067 1331.28L176.067 1312.05L140.948 1312.05L140.948 1489.2L176.993 1489.2Z" fill="#1D1D1B" />
    <path d="M210.212 1489.2L231.129 1312.05L223.642 1312.05L209.208 1440.87C208.282 1448.71 207.356 1456.81 206.507 1464.4C205.581 1456.56 204.732 1448.96 203.806 1440.87L189.372 1312.05L181.654 1312.05L202.107 1489.2L210.212 1489.2Z" fill="#1D1D1B" />
    <path d="M238.56 1312.05L238.56 1489.2L245.584 1489.2L245.584 1312.05L238.56 1312.05Z" fill="#1D1D1B" />
    <path d="M295.635 1489.2L295.635 1469.72L266.613 1469.72L266.613 1408.73L293.474 1408.73L293.474 1389.24L266.613 1389.24L266.613 1331.28L294.709 1331.28L294.709 1312.05L259.59 1312.05L259.59 1489.2L295.635 1489.2Z" fill="#1D1D1B" />
    <path d="M324.145 1489.2L335.105 1356.59L336.958 1333.05C337.575 1340.9 338.27 1348.75 338.887 1356.59L349.616 1489.2L358.183 1489.2L372.849 1312.05L365.979 1312.05L355.25 1440.87C354.71 1447.7 354.17 1454.53 353.552 1461.62C353.089 1455.04 352.472 1447.45 351.854 1440.87L341.434 1312.05L332.635 1312.05L322.061 1440.87C321.598 1446.94 320.826 1455.04 320.286 1461.37C319.745 1454.28 319.205 1447.45 318.588 1440.87L308.091 1312.05L300.835 1312.05L315.5 1489.2L324.145 1489.2Z" fill="#1D1D1B" />
    <path d="M398.774 1493C412.05 1493 420 1469.21 420 1440.11C420 1413.28 413.748 1398.1 405.181 1391.52L395.61 1384.43C389.28 1379.62 386.193 1370.51 386.193 1355.33C386.193 1339.13 391.364 1327.49 398.388 1327.49C405.952 1327.49 410.969 1340.65 411.432 1361.65L418.611 1361.65C417.993 1328.75 410.198 1308 398.543 1308C387.119 1308 378.783 1328.75 378.783 1357.35C378.783 1384.43 385.576 1399.87 393.834 1406.19L401.862 1412.27C408.268 1417.08 412.59 1424.67 412.59 1441.63C412.59 1460.86 407.728 1473.77 398.851 1473.77C390.284 1473.77 384.572 1457.82 384.109 1432.26L376.931 1432.26C377.085 1469.72 385.653 1493 398.774 1493Z" fill="#1D1D1B" />
    <path d="M1710.51 1487.17V1456.09H1642.27C1643.57 1445.99 1650.82 1433.17 1662.91 1414.13L1672.02 1399.76C1696.56 1360.91 1708.28 1331.77 1708.28 1290.98C1708.28 1240.47 1690.8 1209 1666.63 1209C1642.27 1209 1623.3 1242.8 1623.3 1301.08V1310.01H1640.04V1304.96C1640.04 1260.28 1650.82 1236.97 1666.63 1236.97C1682.24 1236.97 1691.36 1260.28 1691.36 1291.36C1691.36 1325.94 1677.78 1350.81 1666.81 1368.68L1649.15 1397.04C1628.88 1429.28 1622 1452.21 1622 1487.17H1710.51Z" fill="#1D1D1B" />
    <path d="M1772.31 1493C1799.27 1493 1818.42 1459.98 1818.42 1412.58C1818.42 1379.17 1809.31 1353.91 1791.46 1343.81C1807.08 1332.93 1815.08 1308.46 1815.08 1280.49C1815.08 1238.53 1797.41 1209 1773.8 1209C1745.91 1209 1730.1 1242.41 1729.54 1291.36H1746.28C1746.65 1257.18 1756.13 1236.97 1773.61 1236.97C1788.3 1236.97 1798.15 1253.29 1798.15 1282.04C1798.15 1313.51 1786.81 1330.21 1773.05 1330.21H1765.24V1360.13H1772.87C1788.67 1360.13 1801.5 1378 1801.5 1411.41C1801.5 1445.21 1789.42 1465.42 1772.31 1465.42C1754.09 1465.42 1744.05 1440.94 1744.05 1408.69H1727.5C1727.5 1459.2 1744.6 1493 1772.31 1493Z" fill="#1D1D1B" />
    <path d="M1860.99 1487.17V1442.11H1839.79V1487.17H1860.99Z" fill="#1D1D1B" />
    <path d="M1965.89 1397.04V1368.68H1884.83V1397.04H1965.89Z" fill="#1D1D1B" />
    <path d="M2070.4 1487.17V1456.09H2002.16C2003.46 1445.99 2010.71 1433.17 2022.8 1414.13L2031.91 1399.76C2056.45 1360.91 2068.17 1331.77 2068.17 1290.98C2068.17 1240.47 2050.69 1209 2026.52 1209C2002.16 1209 1983.19 1242.8 1983.19 1301.08V1310.01H1999.93V1304.96C1999.93 1260.28 2010.71 1236.97 2026.52 1236.97C2042.14 1236.97 2051.25 1260.28 2051.25 1291.36C2051.25 1325.94 2037.67 1350.81 2026.7 1368.68L2009.04 1397.04C1988.77 1429.28 1981.89 1452.21 1981.89 1487.17H2070.4Z" fill="#1D1D1B" />
    <path d="M2157.91 1487.17V1417.63H2181.9V1386.55H2157.91V1215.22H2135.97L2081.86 1384.61V1417.63H2141.55V1487.17H2157.91ZM2097.29 1386.55C2098.78 1381.89 2100.27 1376.84 2101.57 1372.95L2135.97 1264.56L2141.55 1245.91V1386.55H2097.29Z" fill="#1D1D1B" />
    <path d="M2220.16 1487.17V1442.11H2198.96V1487.17H2220.16Z" fill="#1D1D1B" />
    <path d="M2269.06 1487.17C2270.74 1395.1 2290.26 1308.07 2315.92 1248.63V1215.22H2229.83V1246.3H2300.49C2298.07 1251.35 2295.47 1257.18 2293.05 1263.78C2271.48 1317.01 2255.12 1390.43 2251.59 1487.17H2269.06Z" fill="#1D1D1B" />
    <path d="M2340 1487.17V1442.11H2318.8V1487.17H2340Z" fill="#1D1D1B" />
    <path d="M885.15 1405.1V1325.57H906.223C918.966 1325.57 924.234 1334.4 924.234 1363.25V1405.1H935.384V1356.76C935.384 1332.84 929.503 1318.03 921.416 1315.17C929.135 1310.23 937.222 1293.86 937.222 1270.98C937.222 1240.31 926.807 1223.16 910.389 1223.16H874V1405.1H885.15ZM885.15 1242.91H907.694C919.211 1242.91 925.827 1253.31 925.827 1273.84C925.827 1294.38 919.211 1305.55 907.694 1305.55H885.15V1242.91Z" fill="#1D1D1B" />
    <path d="M986.848 1409C1006.94 1409 1019.19 1384.57 1019.19 1334.14V1223.16H1008.04V1331.02C1008.04 1371.57 1000.69 1389.25 986.848 1389.25C973.003 1389.25 965.774 1371.05 965.774 1331.02V1223.16H954.625V1334.14C954.625 1384.57 966.754 1409 986.848 1409Z" fill="#1D1D1B" />
    <path d="M1051.58 1405.1V1246.03L1096.43 1405.1H1111.99V1223.16H1100.72V1378.33L1057.22 1223.16H1040.43V1405.1H1051.58Z" fill="#1D1D1B" />
    <path d="M1162.43 1405.1C1190.97 1405.1 1205.8 1369.23 1205.8 1313.87C1205.8 1249.15 1187.54 1223.16 1159.73 1223.16H1134V1405.1H1162.43ZM1145.15 1242.91H1160.59C1183.99 1242.91 1194.16 1268.38 1194.16 1313.87C1194.16 1364.81 1181.66 1385.09 1161.08 1385.09H1145.15V1242.91Z" fill="#1D1D1B" />
    <path d="M1258.31 1409C1270.44 1409 1280.85 1396.26 1285.51 1379.89V1405.1H1294.7V1309.97H1257.58V1329.98H1284.53V1333.36C1284.53 1370.27 1274.36 1389.25 1258.68 1389.25C1241.28 1389.25 1229.4 1357.8 1229.4 1315.17C1229.4 1264.75 1242.14 1239.01 1259.29 1239.01C1271.42 1239.01 1280.73 1254.09 1282.45 1275.92H1294.33C1292.37 1242.39 1278.16 1219 1259.29 1219C1236.99 1219 1217.63 1252.53 1217.63 1315.17C1217.63 1368.19 1233.19 1409 1258.31 1409Z" fill="#1D1D1B" />
    <path d="M1385.04 1405.1L1350.61 1223.16H1337.13L1302.82 1405.1H1314.59L1324.39 1351.04H1362.86L1372.66 1405.1H1385.04ZM1341.17 1258.51C1342.03 1253.83 1342.89 1249.15 1343.62 1244.73C1344.48 1249.15 1345.22 1253.83 1346.07 1258.51L1359.31 1331.28H1327.94L1341.17 1258.51Z" fill="#1D1D1B" />
    <path d="M1407.78 1405.1V1246.03L1452.63 1405.1H1468.19V1223.16H1456.92V1378.33L1413.42 1223.16H1396.63V1405.1H1407.78Z" fill="#1D1D1B" />
    <path d="M1525.61 1409C1537.74 1409 1548.15 1396.26 1552.81 1379.89V1405.1H1562V1309.97H1524.88V1329.98H1551.83V1333.36C1551.83 1370.27 1541.66 1389.25 1525.98 1389.25C1508.58 1389.25 1496.7 1357.8 1496.7 1315.17C1496.7 1264.75 1509.44 1239.01 1526.59 1239.01C1538.72 1239.01 1548.03 1254.09 1549.75 1275.92H1561.63C1559.67 1242.39 1545.46 1219 1526.59 1219C1504.29 1219 1484.93 1252.53 1484.93 1315.17C1484.93 1368.19 1500.49 1409 1525.61 1409Z" fill="#1D1D1B" />
    <path d="M893.47 1494.83V1446.09H907.561V1440.15H874V1446.09H888.149V1494.83H893.47Z" fill="#1D1D1B" />
    <path d="M943.718 1494.83L927.288 1440.15H920.857L904.485 1494.83H910.098L914.776 1478.58H933.135L937.813 1494.83H943.718ZM922.786 1450.78C923.195 1449.37 923.605 1447.96 923.955 1446.64C924.365 1447.96 924.715 1449.37 925.125 1450.78L931.439 1472.65H916.471L922.786 1450.78Z" fill="#1D1D1B" />
    <path d="M965.294 1496C971.082 1496 976.052 1492.17 978.274 1487.25V1494.83H982.659V1466.24H964.943V1472.26H977.806V1473.27C977.806 1484.36 972.953 1490.06 965.469 1490.06C957.167 1490.06 951.495 1480.61 951.495 1467.8C951.495 1452.65 957.576 1444.92 965.762 1444.92C971.55 1444.92 975.994 1449.45 976.812 1456.01H982.484C981.548 1445.93 974.766 1438.9 965.762 1438.9C955.12 1438.9 945.882 1448.98 945.882 1467.8C945.882 1483.74 953.308 1496 965.294 1496Z" fill="#1D1D1B" />
    <path d="M1018.81 1494.83V1488.81H996.826V1469.99H1017.17V1463.98H996.826V1446.09H1018.11V1440.15H991.506V1494.83H1018.81Z" fill="#1D1D1B" />
    <path d="M1054.58 1494.83C1068.2 1494.83 1075.27 1484.05 1075.27 1467.41C1075.27 1447.96 1066.56 1440.15 1053.29 1440.15H1041.01V1494.83H1054.58ZM1046.33 1446.09H1053.7C1064.87 1446.09 1069.72 1453.74 1069.72 1467.41C1069.72 1482.72 1063.75 1488.81 1053.93 1488.81H1046.33V1446.09Z" fill="#1D1D1B" />
    <path d="M1110.74 1494.83V1488.81H1088.76V1469.99H1109.1V1463.98H1088.76V1446.09H1110.04V1440.15H1083.43V1494.83H1110.74Z" fill="#1D1D1B" />
    <path d="M1124.38 1494.83V1470.93H1134.44C1140.52 1470.93 1143.04 1473.58 1143.04 1482.25V1494.83H1148.36V1480.3C1148.36 1473.11 1145.55 1468.66 1141.69 1467.8C1145.38 1466.32 1149.23 1461.4 1149.23 1454.52C1149.23 1445.31 1144.26 1440.15 1136.43 1440.15H1119.06V1494.83H1124.38ZM1124.38 1446.09H1135.14C1140.64 1446.09 1143.8 1449.21 1143.8 1455.38C1143.8 1461.55 1140.64 1464.91 1135.14 1464.91H1124.38V1446.09Z" fill="#1D1D1B" />
    <path d="M1188.72 1496C1199.71 1496 1208.13 1484.67 1208.13 1467.49C1208.13 1450.31 1199.83 1438.9 1188.72 1438.9C1177.67 1438.9 1169.31 1450.31 1169.31 1467.49C1169.31 1484.67 1177.73 1496 1188.72 1496ZM1188.72 1490.06C1180.42 1490.06 1174.92 1481.47 1174.92 1467.49C1174.92 1453.51 1180.59 1444.92 1188.72 1444.92C1196.91 1444.92 1202.52 1453.51 1202.52 1467.49C1202.52 1481.47 1197.02 1490.06 1188.72 1490.06Z" fill="#1D1D1B" />
    <path d="M1221.45 1494.83V1469.6H1241.8V1463.66H1221.45V1446.09H1242.79V1440.15H1216.13V1494.83H1221.45Z" fill="#1D1D1B" />
    <path d="M1255.48 1494.83V1469.6H1275.83V1463.66H1255.48V1446.09H1276.82V1440.15H1250.16V1494.83H1255.48Z" fill="#1D1D1B" />
    <path d="M1311.5 1494.83V1488.81H1289.51V1469.99H1309.86V1463.98H1289.51V1446.09H1310.8V1440.15H1284.19V1494.83H1311.5Z" fill="#1D1D1B" />
    <path d="M1325.14 1494.83V1447.03L1346.54 1494.83H1353.97V1440.15H1348.59V1486.78L1327.83 1440.15H1319.82V1494.83H1325.14Z" fill="#1D1D1B" />
    <path d="M1391.78 1494.83V1488.81H1369.79V1469.99H1390.14V1463.98H1369.79V1446.09H1391.08V1440.15H1364.47V1494.83H1391.78Z" fill="#1D1D1B" />
    <path d="M1405.42 1494.83V1447.03L1426.82 1494.83H1434.25V1440.15H1428.87V1486.78L1408.11 1440.15H1400.1V1494.83H1405.42Z" fill="#1D1D1B" />
    <path d="M1471.37 1494.83V1446.09H1485.46V1440.15H1451.9V1446.09H1466.04V1494.83H1471.37Z" fill="#1D1D1B" />
    <path d="M1503.28 1433.05V1425H1497.43V1433.05H1503.28ZM1515.03 1433.05V1425H1509.24V1433.05H1515.03ZM1506.26 1496C1515.85 1496 1521.69 1488.66 1521.69 1473.5V1440.15H1516.37V1472.57C1516.37 1484.75 1512.87 1490.06 1506.26 1490.06C1499.65 1490.06 1496.2 1484.6 1496.2 1472.57V1440.15H1490.88V1473.5C1490.88 1488.66 1496.67 1496 1506.26 1496Z" fill="#1D1D1B" />
    <path d="M1537.15 1494.83V1470.93H1547.21C1553.29 1470.93 1555.8 1473.58 1555.8 1482.25V1494.83H1561.12V1480.3C1561.12 1473.11 1558.32 1468.66 1554.46 1467.8C1558.14 1466.32 1562 1461.4 1562 1454.52C1562 1445.31 1557.03 1440.15 1549.2 1440.15H1531.83V1494.83H1537.15ZM1537.15 1446.09H1547.91C1553.41 1446.09 1556.56 1449.21 1556.56 1455.38C1556.56 1461.55 1553.41 1464.91 1547.91 1464.91H1537.15V1446.09Z" fill="#1D1D1B" />
    <defs>
        <clipPath id="clip0_1100_2759">
            <rect width="2296" height="1142" fill="white" transform="translate(2337 1186) rotate(-180)" />
        </clipPath>
    </defs>
</svg>
    