<svg width="898" height="1593" viewBox="0 0 898 1593" fill="none" xmlns="http://www.w3.org/2000/svg" preserveAspectRatio="none">
    <g clip-path="url(#clip0_1101_3000)">
        <rect width="898" height="1593" fill="white" />
        <path d="M66.6518 223C83.8947 223 94.4087 197.796 94.4087 145.78L94.4087 31.29L84.841 31.29L84.841 142.562C84.841 184.39 78.5326 202.622 66.6518 202.622C54.771 202.622 48.5677 183.854 48.5677 142.562L48.5677 31.29L39 31.29L39 145.78C39 197.796 49.4088 223 66.6518 223Z" fill="#1D1D1B" />
        <path d="M137.028 218.978C161.526 218.978 174.248 181.977 174.248 124.866C174.248 58.1026 158.582 31.29 134.715 31.29L112.636 31.29L112.636 218.978L137.028 218.978ZM122.203 51.6676L135.451 51.6676C155.533 51.6676 164.259 77.9439 164.259 124.866C164.259 177.419 153.535 198.332 135.872 198.332L122.203 198.332L122.203 51.6676Z" fill="#1D1D1B" />
        <path d="M209.11 116.554L241.704 31.29L229.823 31.29L202.802 102.343C201.33 106.097 199.753 109.851 198.386 113.605L198.386 31.29L188.924 31.29L188.924 218.978L198.386 218.978L198.386 144.439L202.592 133.446L233.713 218.978L246.645 218.978L209.11 116.554Z" fill="#1D1D1B" />
        <path d="M286.176 218.978L286.176 136.932L304.26 136.932C315.195 136.932 319.716 146.048 319.716 175.81L319.716 218.978L329.284 218.978L329.284 169.107C329.284 144.439 324.237 129.156 317.298 126.207C323.922 121.112 330.861 104.22 330.861 80.6252C330.861 48.9863 321.924 31.29 307.835 31.29L276.609 31.29L276.609 218.978L286.176 218.978ZM286.176 51.6676L305.522 51.6676C315.405 51.6676 321.083 62.3926 321.083 83.5746C321.083 104.757 315.405 116.286 305.522 116.286L286.176 116.286L286.176 51.6676Z" fill="#1D1D1B" />
        <path d="M373.447 223C390.689 223 401.203 197.796 401.203 145.78L401.203 31.29L391.636 31.29L391.636 142.562C391.636 184.39 385.327 202.622 373.447 202.622C361.566 202.622 355.362 183.854 355.362 142.562L355.362 31.29L345.795 31.29L345.795 145.78C345.795 197.796 356.204 223 373.447 223Z" fill="#1D1D1B" />
        <path d="M428.998 218.978L428.998 54.8851L467.479 218.978L480.832 218.978L480.832 31.29L471.159 31.29L471.159 191.361L433.835 31.29L419.43 31.29L419.43 218.978L428.998 218.978Z" fill="#1D1D1B" />
        <path d="M524.115 218.978C548.613 218.978 561.335 181.977 561.335 124.866C561.335 58.1026 545.669 31.29 521.802 31.29L499.723 31.29L499.723 218.978L524.115 218.978ZM509.29 51.6676L522.538 51.6676C542.62 51.6676 551.346 77.9439 551.346 124.866C551.346 177.419 540.622 198.332 522.959 198.332L509.29 198.332L509.29 51.6676Z" fill="#1D1D1B" />
        <path d="M606.396 223C616.805 223 625.742 209.862 629.737 192.97L629.737 218.978L637.623 218.978L637.623 120.844L605.765 120.844L605.765 141.49L628.896 141.49L628.896 144.975C628.896 183.049 620.169 202.622 606.712 202.622C591.782 202.622 581.583 170.179 581.583 126.207C581.583 74.1902 592.518 47.6457 607.237 47.6457C617.646 47.6457 625.637 63.197 627.109 85.7196L637.307 85.7196C635.625 51.1313 623.429 27 607.237 27C588.102 27 571.49 61.5882 571.49 126.207C571.49 180.904 584.842 223 606.396 223Z" fill="#1D1D1B" />
        <path d="M715.143 218.978L685.598 31.29L674.033 31.29L644.594 218.978L654.687 218.978L663.099 163.208L696.112 163.208L704.524 218.978L715.143 218.978ZM677.503 67.7551C678.239 62.9289 678.975 58.1026 679.605 53.5445C680.341 58.1026 680.972 62.9289 681.708 67.7551L693.063 142.83L666.148 142.83L677.503 67.7551Z" fill="#1D1D1B" />
        <path d="M734.663 218.978L734.663 54.8851L773.145 218.978L786.497 218.978L786.497 31.29L776.824 31.29L776.824 191.361L739.5 31.29L725.096 31.29L725.096 218.978L734.663 218.978Z" fill="#1D1D1B" />
        <path d="M835.773 223C846.182 223 855.119 209.862 859.114 192.97L859.114 218.978L867 218.978L867 120.844L835.143 120.844L835.143 141.49L858.273 141.49L858.273 144.975C858.273 183.049 849.547 202.622 836.089 202.622C821.159 202.622 810.96 170.179 810.96 126.207C810.96 74.1902 821.895 47.6457 836.615 47.6457C847.023 47.6457 855.014 63.197 856.486 85.7196L866.685 85.7196C865.002 51.1313 852.806 27 836.615 27C817.479 27 800.867 61.5882 800.867 126.207C800.867 180.904 814.22 223 835.773 223Z" fill="#1D1D1B" />
        <path d="M279.579 250V443.701H31V959H867V443.701H635.434V250H279.579Z" fill="#1D1D1B" />
        <path d="M592.694 1435.25L592.694 1399.24L535.104 1399.24C536.203 1387.54 542.323 1372.69 552.523 1350.64L560.212 1333.98C580.925 1288.98 590.811 1255.22 590.811 1207.96C590.811 1149.46 576.061 1113 555.661 1113C535.104 1113 519.098 1152.16 519.098 1219.67L519.098 1230.02L533.221 1230.02L533.221 1224.17C533.221 1172.41 542.323 1145.4 555.661 1145.4C568.842 1145.4 576.532 1172.41 576.532 1208.41C576.532 1248.47 565.076 1277.27 555.818 1297.98L540.91 1330.83C523.806 1368.19 518 1394.74 518 1435.25L592.694 1435.25Z" fill="black" />
        <path d="M647.991 1442C672.941 1442 687.849 1383.04 687.849 1278.18C687.849 1173.31 672.314 1113 647.991 1113C623.354 1113 608.133 1174.66 608.133 1278.18C608.133 1381.69 622.57 1442 647.991 1442ZM647.991 1410.05C632.142 1410.05 622.413 1368.64 622.413 1278.18C622.413 1187.71 631.357 1145.4 647.991 1145.4C664.154 1145.4 673.412 1187.26 673.412 1278.18C673.412 1369.09 663.997 1410.05 647.991 1410.05Z" fill="black" />
        <path d="M777.966 1435.25L777.966 1399.24L720.376 1399.24C721.474 1387.54 727.594 1372.69 737.794 1350.64L745.483 1333.98C766.197 1288.98 776.083 1255.22 776.083 1207.96C776.083 1149.46 761.332 1113 740.932 1113C720.376 1113 704.37 1152.16 704.37 1219.67L704.37 1230.02L718.493 1230.02L718.493 1224.17C718.493 1172.41 727.594 1145.4 740.932 1145.4C754.114 1145.4 761.803 1172.41 761.803 1208.41C761.803 1248.47 750.348 1277.27 741.089 1297.98L726.182 1330.83C709.077 1368.19 703.271 1394.74 703.271 1435.25L777.966 1435.25Z" fill="black" />
        <path d="M867 1435.25L867 1399.24L809.41 1399.24C810.508 1387.54 816.628 1372.69 826.828 1350.64L834.517 1333.98C855.231 1288.98 865.117 1255.22 865.117 1207.96C865.117 1149.46 850.366 1113 829.967 1113C809.41 1113 793.404 1152.16 793.404 1219.67L793.404 1230.02L807.527 1230.02L807.527 1224.17C807.527 1172.41 816.628 1145.4 829.967 1145.4C843.148 1145.4 850.837 1172.41 850.837 1208.41C850.837 1248.47 839.382 1277.27 830.124 1297.98L815.216 1330.83C798.112 1368.19 792.306 1394.74 792.306 1435.25L867 1435.25Z" fill="black" />
        <path d="M61.1703 1076.19V1066.56H37.9088C38.3524 1063.43 40.8244 1059.46 44.9443 1053.56L48.05 1049.11C56.4166 1037.07 60.4097 1028.04 60.4097 1015.4C60.4097 999.751 54.4517 990 46.2119 990C37.9088 990 31.4437 1000.47 31.4437 1018.53V1021.3H37.1482V1019.73C37.1482 1005.89 40.8244 998.668 46.2119 998.668C51.5361 998.668 54.6419 1005.89 54.6419 1015.52C54.6419 1026.24 50.0149 1033.94 46.2753 1039.48L40.2539 1048.27C33.3452 1058.26 31 1065.36 31 1076.19H61.1703Z" fill="black" />
        <path d="M97.1328 1076.19V1066.56H73.8712C74.3149 1063.43 76.7868 1059.46 80.9067 1053.56L84.0125 1049.11C92.379 1037.07 96.3722 1028.04 96.3722 1015.4C96.3722 999.751 90.4142 990 82.1744 990C73.8712 990 67.4061 1000.47 67.4061 1018.53V1021.3H73.1106V1019.73C73.1106 1005.89 76.7868 998.668 82.1744 998.668C87.4986 998.668 90.6043 1005.89 90.6043 1015.52C90.6043 1026.24 85.9774 1033.94 82.2378 1039.48L76.2164 1048.27C69.3076 1058.26 66.9624 1065.36 66.9624 1076.19H97.1328Z" fill="black" />
        <path d="M111.291 1076.19V1062.23H104.066V1076.19H111.291Z" fill="black" />
        <path d="M127.963 1076.19C128.534 1047.66 135.189 1020.7 143.936 1002.28V991.926H114.589V1001.56H138.675C137.851 1003.12 136.964 1004.93 136.14 1006.97C128.787 1023.47 123.209 1046.22 122.005 1076.19H127.963Z" fill="black" />
        <path d="M152.144 1076.19V1062.23H144.918V1076.19H152.144Z" fill="black" />
        <path d="M180.992 1076.19V1039.36H191.894C198.486 1039.36 201.212 1043.45 201.212 1056.81V1076.19H206.98V1053.8C206.98 1042.73 203.937 1035.87 199.754 1034.54C203.747 1032.25 207.93 1024.67 207.93 1014.08C207.93 999.871 202.543 991.926 194.049 991.926H175.225V1076.19H180.992ZM180.992 1001.08H192.655C198.613 1001.08 202.036 1005.89 202.036 1015.4C202.036 1024.91 198.613 1030.09 192.655 1030.09H180.992V1001.08Z" fill="black" />
        <path d="M233.603 1078C243.998 1078 250.336 1066.68 250.336 1043.33V991.926H244.568V1041.89C244.568 1060.66 240.765 1068.85 233.603 1068.85C226.441 1068.85 222.701 1060.42 222.701 1041.89V991.926H216.933V1043.33C216.933 1066.68 223.208 1078 233.603 1078Z" fill="black" />
        <path d="M267.092 1076.19V1002.52L290.29 1076.19H298.34V991.926H292.509V1063.79L270.008 991.926H261.324V1076.19H267.092Z" fill="black" />
        <path d="M324.433 1076.19C339.201 1076.19 346.87 1059.58 346.87 1033.94C346.87 1003.96 337.426 991.926 323.038 991.926H309.728V1076.19H324.433ZM315.496 1001.08H323.482C335.588 1001.08 340.849 1012.87 340.849 1033.94C340.849 1057.53 334.384 1066.92 323.736 1066.92H315.496V1001.08Z" fill="black" />
        <path d="M374.035 1078C380.31 1078 385.698 1072.1 388.106 1064.52V1076.19H392.86V1032.13H373.655V1041.4H387.599V1042.97C387.599 1060.06 382.339 1068.85 374.226 1068.85C365.225 1068.85 359.077 1054.28 359.077 1034.54C359.077 1011.19 365.669 999.269 374.542 999.269C380.817 999.269 385.635 1006.25 386.522 1016.36H392.67C391.656 1000.83 384.303 990 374.542 990C363.007 990 352.992 1005.53 352.992 1034.54C352.992 1059.1 361.042 1078 374.035 1078Z" fill="black" />
        <path d="M439.593 1076.19L421.782 991.926H414.81L397.063 1076.19H403.148L408.218 1051.15H428.12L433.191 1076.19H439.593ZM416.902 1008.3C417.345 1006.13 417.789 1003.96 418.169 1001.92C418.613 1003.96 418.993 1006.13 419.437 1008.3L426.282 1042.01H410.056L416.902 1008.3Z" fill="black" />
        <path d="M451.361 1076.19V1002.52L474.559 1076.19H482.609V991.926H476.777V1063.79L454.276 991.926H445.593V1076.19H451.361Z" fill="black" />
        <path d="M512.314 1078C518.589 1078 523.977 1072.1 526.385 1064.52V1076.19H531.139V1032.13H511.934V1041.4H525.878V1042.97C525.878 1060.06 520.618 1068.85 512.505 1068.85C503.504 1068.85 497.356 1054.28 497.356 1034.54C497.356 1011.19 503.948 999.269 512.822 999.269C519.096 999.269 523.914 1006.25 524.801 1016.36H530.949C529.935 1000.83 522.582 990 512.822 990C501.286 990 491.271 1005.53 491.271 1034.54C491.271 1059.1 499.321 1078 512.314 1078Z" fill="black" />
        <path d="M561.538 1076.19V1039.72H573.074C581.124 1039.72 588.286 1034.3 588.286 1015.88C588.286 997.343 580.807 991.926 573.074 991.926H555.77V1076.19H561.538ZM561.538 1001.08H573.011C579.793 1001.08 582.391 1006.85 582.391 1015.88C582.391 1024.79 579.793 1030.57 573.011 1030.57H561.538V1001.08Z" fill="black" />
        <path d="M601.462 1076.19V1039.36H612.364C618.956 1039.36 621.681 1043.45 621.681 1056.81V1076.19H627.449V1053.8C627.449 1042.73 624.407 1035.87 620.224 1034.54C624.217 1032.25 628.4 1024.67 628.4 1014.08C628.4 999.871 623.012 991.926 614.519 991.926H595.694V1076.19H601.462ZM601.462 1001.08H613.125C619.083 1001.08 622.505 1005.89 622.505 1015.4C622.505 1024.91 619.083 1030.09 613.125 1030.09H601.462V1001.08Z" fill="black" />
        <path d="M667.446 1076.19V1066.92H643.614V1037.91H665.672V1028.64H643.614V1001.08H666.686V991.926H637.847V1076.19H667.446Z" fill="black" />
        <path d="M694.725 1076.19L711.902 991.926H705.754L693.901 1053.2C693.14 1056.93 692.38 1060.79 691.682 1064.4C690.922 1060.66 690.225 1057.05 689.464 1053.2L677.611 991.926H671.273L688.07 1076.19H694.725Z" fill="black" />
        <path d="M718.004 991.926V1076.19H723.772V991.926H718.004Z" fill="black" />
        <path d="M764.873 1076.19V1066.92H741.041V1037.91H763.098V1028.64H741.041V1001.08H764.112V991.926H735.273V1076.19H764.873Z" fill="black" />
        <path d="M788.285 1076.19L797.286 1013.11L798.807 1001.92C799.314 1005.65 799.884 1009.38 800.391 1013.11L809.202 1076.19H816.237L828.28 991.926H822.639L813.829 1053.2C813.385 1056.45 812.941 1059.7 812.434 1063.07C812.054 1059.94 811.547 1056.33 811.04 1053.2L802.483 991.926H795.257L786.574 1053.2C786.194 1056.09 785.56 1059.94 785.116 1062.95C784.672 1059.58 784.229 1056.33 783.722 1053.2L775.102 991.926H769.144L781.186 1076.19H788.285Z" fill="black" />
        <path d="M849.57 1078C860.472 1078 867 1066.68 867 1052.84C867 1040.08 861.866 1032.86 854.83 1029.73L846.971 1026.36C841.773 1024.07 839.238 1019.73 839.238 1012.51C839.238 1004.81 843.485 999.269 849.253 999.269C855.464 999.269 859.584 1005.53 859.964 1015.52H865.859C865.352 999.871 858.95 990 849.38 990C839.999 990 833.153 999.871 833.153 1013.47C833.153 1026.36 838.731 1033.7 845.513 1036.71L852.105 1039.6C857.366 1041.89 860.915 1045.5 860.915 1053.56C860.915 1062.71 856.922 1068.85 849.633 1068.85C842.598 1068.85 837.907 1061.27 837.527 1049.11H831.632C831.759 1066.92 838.795 1078 849.57 1078Z" fill="black" />
        <path d="M38.3574 1440.13L38.3574 1402.04H52.2637C60.6722 1402.04 64.1487 1406.27 64.1487 1420.09V1440.13H71.5061V1416.98C71.5061 1405.53 67.6253 1398.43 62.2892 1397.06C67.3828 1394.69 72.7189 1386.85 72.7189 1375.9C72.7189 1361.21 65.8466 1352.99 55.0126 1352.99H31L31 1440.13H38.3574ZM38.3574 1362.45H53.2339C60.8339 1362.45 65.1998 1367.43 65.1998 1377.27C65.1998 1387.1 60.8339 1392.45 53.2339 1392.45H38.3574L38.3574 1362.45Z" fill="#1D1D1B" />
        <path d="M105.467 1442C118.726 1442 126.811 1430.3 126.811 1406.15L126.811 1352.99H119.454L119.454 1404.65C119.454 1424.07 114.603 1432.54 105.467 1432.54C96.3304 1432.54 91.5602 1423.82 91.5602 1404.65L91.5602 1352.99H84.2028L84.2028 1406.15C84.2028 1430.3 92.207 1442 105.467 1442Z" fill="#1D1D1B" />
        <path d="M148.185 1440.13L148.185 1363.95L177.776 1440.13H188.044L188.044 1352.99H180.606L180.606 1427.31L151.904 1352.99H140.827L140.827 1440.13H148.185Z" fill="#1D1D1B" />
        <path d="M221.328 1440.13C240.166 1440.13 249.949 1422.95 249.949 1396.44C249.949 1365.44 237.902 1352.99 219.549 1352.99H202.571L202.571 1440.13H221.328ZM209.928 1362.45H220.115C235.558 1362.45 242.268 1374.65 242.268 1396.44C242.268 1420.84 234.021 1430.55 220.439 1430.55H209.928L209.928 1362.45Z" fill="#1D1D1B" />
        <path d="M284.6 1442C292.605 1442 299.477 1435.9 302.549 1428.06V1440.13H308.613V1394.57H284.115V1404.16H301.902V1405.77C301.902 1423.45 295.192 1432.54 284.843 1432.54C273.362 1432.54 265.52 1417.48 265.52 1397.06C265.52 1372.91 273.928 1360.59 285.247 1360.59C293.251 1360.59 299.396 1367.81 300.528 1378.26H308.371C307.077 1362.2 297.698 1351 285.247 1351C270.532 1351 257.758 1367.06 257.758 1397.06C257.758 1422.46 268.026 1442 284.6 1442Z" fill="#1D1D1B" />
        <path d="M368.225 1440.13L345.506 1352.99H336.612L313.974 1440.13H321.736L328.204 1414.24H353.591L360.059 1440.13H368.225ZM339.28 1369.92C339.846 1367.68 340.412 1365.44 340.897 1363.32C341.463 1365.44 341.948 1367.68 342.514 1369.92L351.246 1404.78H330.548L339.28 1369.92Z" fill="#1D1D1B" />
        <path d="M383.236 1440.13V1363.95L412.827 1440.13H423.095V1352.99H415.657V1427.31L386.955 1352.99H375.878V1440.13H383.236Z" fill="#1D1D1B" />
        <path d="M460.987 1442C468.992 1442 475.864 1435.9 478.936 1428.06V1440.13H485V1394.57H460.502V1404.16H478.289V1405.77C478.289 1423.45 471.579 1432.54 461.23 1432.54C449.749 1432.54 441.907 1417.48 441.907 1397.06C441.907 1372.91 450.315 1360.59 461.634 1360.59C469.638 1360.59 475.783 1367.81 476.915 1378.26H484.757C483.464 1362.2 474.085 1351 461.634 1351C446.919 1351 434.145 1367.06 434.145 1397.06C434.145 1422.46 444.413 1442 460.987 1442Z" fill="#1D1D1B" />
        <path d="M54.6585 1560.18L54.6585 1484.67H71.7808V1475.48H31L31 1484.67H48.1933L48.1933 1560.18H54.6585Z" fill="#1D1D1B" />
        <path d="M115.715 1560.18L95.7512 1475.48H87.9361L68.043 1560.18H74.8635L80.5472 1535.01H102.856L108.54 1560.18H115.715ZM90.2806 1491.93C90.778 1489.76 91.2753 1487.58 91.7016 1485.52C92.1989 1487.58 92.6252 1489.76 93.1225 1491.93L100.796 1525.82H82.6076L90.2806 1491.93Z" fill="#1D1D1B" />
        <path d="M141.933 1562C148.966 1562 155.005 1556.07 157.705 1548.45V1560.18H163.033V1515.89H141.506L141.506 1525.21H157.137V1526.79C157.137 1543.97 151.24 1552.8 142.146 1552.8C132.057 1552.8 125.166 1538.16 125.166 1518.31C125.166 1494.84 132.554 1482.86 142.501 1482.86C149.535 1482.86 154.934 1489.88 155.929 1500.04H162.82C161.684 1484.43 153.442 1473.54 142.501 1473.54C129.571 1473.54 118.345 1489.15 118.345 1518.31C118.345 1543 127.368 1562 141.933 1562Z" fill="#1D1D1B" />
        <path d="M206.962 1560.18V1550.87H180.248V1521.7H204.973V1512.39H180.248L180.248 1484.67H206.109V1475.48H173.783L173.783 1560.18H206.962Z" fill="#1D1D1B" />
        <path d="M250.42 1560.18C266.974 1560.18 275.57 1543.49 275.57 1517.71C275.57 1487.58 264.984 1475.48 248.857 1475.48H233.937L233.937 1560.18H250.42ZM240.402 1484.67H249.354C262.924 1484.67 268.821 1496.53 268.821 1517.71C268.821 1541.43 261.574 1550.87 249.638 1550.87H240.402L240.402 1484.67Z" fill="#1D1D1B" />
        <path d="M318.666 1560.18V1550.87H291.953L291.953 1521.7H316.677V1512.39H291.953V1484.67H317.814V1475.48H285.487V1560.18H318.666Z" fill="#1D1D1B" />
        <path d="M335.247 1560.18L335.247 1523.16H347.467C354.855 1523.16 357.91 1527.27 357.91 1540.7V1560.18H364.376L364.376 1537.68C364.376 1526.54 360.965 1519.65 356.276 1518.31C360.752 1516.02 365.441 1508.39 365.441 1497.74C365.441 1483.46 359.402 1475.48 349.882 1475.48H328.781L328.781 1560.18H335.247ZM335.247 1484.67H348.319C354.998 1484.67 358.834 1489.51 358.834 1499.07C358.834 1508.63 354.998 1513.84 348.319 1513.84H335.247V1484.67Z" fill="#1D1D1B" />
        <path d="M413.422 1562C426.779 1562 437.01 1544.45 437.01 1517.83C437.01 1491.21 426.921 1473.54 413.422 1473.54C399.995 1473.54 389.835 1491.21 389.835 1517.83C389.835 1544.45 400.066 1562 413.422 1562ZM413.422 1552.8C403.334 1552.8 396.655 1539.49 396.655 1517.83C396.655 1496.17 403.547 1482.86 413.422 1482.86C423.369 1482.86 430.189 1496.17 430.189 1517.83C430.189 1539.49 423.511 1552.8 413.422 1552.8Z" fill="#1D1D1B" />
        <path d="M453.195 1560.18L453.195 1521.1H477.919V1511.9H453.195V1484.67H479.127V1475.48H446.73L446.73 1560.18H453.195Z" fill="#1D1D1B" />
        <path d="M494.546 1560.18L494.546 1521.1H519.271V1511.9H494.546V1484.67H520.478V1475.48H488.081L488.081 1560.18H494.546Z" fill="#1D1D1B" />
        <path d="M562.611 1560.18V1550.87H535.898V1521.7H560.622V1512.39H535.898V1484.67H561.759V1475.48H529.433V1560.18H562.611Z" fill="#1D1D1B" />
        <path d="M579.192 1560.18V1486.13L605.195 1560.18H614.218V1475.48H607.682V1547.72L582.46 1475.48H572.727V1560.18H579.192Z" fill="#1D1D1B" />
        <path d="M660.162 1560.18V1550.87H633.448V1521.7H658.172V1512.39H633.448V1484.67H659.309V1475.48H626.983V1560.18H660.162Z" fill="#1D1D1B" />
        <path d="M676.742 1560.18V1486.13L702.745 1560.18H711.768V1475.48H705.232V1547.72L680.01 1475.48H670.277V1560.18H676.742Z" fill="#1D1D1B" />
        <path d="M756.868 1560.18V1484.67H773.991V1475.48H733.21V1484.67H750.403V1560.18H756.868Z" fill="#1D1D1B" />
        <path d="M795.644 1464.46V1452H788.539V1464.46H795.644ZM809.924 1464.46V1452H802.891V1464.46H809.924ZM799.267 1562C810.919 1562 818.023 1550.62 818.023 1527.15V1475.48H811.558V1525.7C811.558 1544.57 807.295 1552.8 799.267 1552.8C791.239 1552.8 787.047 1544.33 787.047 1525.7V1475.48H780.582V1527.15C780.582 1550.62 787.615 1562 799.267 1562Z" fill="#1D1D1B" />
        <path d="M836.805 1560.18V1523.16H849.025C856.414 1523.16 859.469 1527.27 859.469 1540.7V1560.18H865.934V1537.68C865.934 1526.54 862.524 1519.65 857.835 1518.31C862.311 1516.02 867 1508.39 867 1497.74C867 1483.46 860.961 1475.48 851.441 1475.48H830.34V1560.18H836.805ZM836.805 1484.67H849.878C856.556 1484.67 860.393 1489.51 860.393 1499.07C860.393 1508.63 856.556 1513.84 849.878 1513.84H836.805V1484.67Z" fill="#1D1D1B" />
        <path d="M86.9639 1318.61V1295.19H43.8153C44.6383 1287.58 49.2235 1277.92 56.8656 1263.57L62.6266 1252.74C78.146 1223.47 85.553 1201.51 85.553 1170.77C85.553 1132.71 74.5013 1109 59.2171 1109C43.8153 1109 31.823 1134.47 31.823 1178.38V1185.11H42.4044V1181.31C42.4044 1147.64 49.2235 1130.08 59.2171 1130.08C69.093 1130.08 74.854 1147.64 74.854 1171.06C74.854 1197.12 66.2713 1215.85 59.3346 1229.32L48.1654 1250.69C35.3501 1274.99 31 1292.26 31 1318.61H86.9639Z" fill="black" />
        <path d="M126.042 1323C143.09 1323 155.2 1298.12 155.2 1262.4C155.2 1237.22 149.439 1218.2 138.152 1210.58C148.028 1202.39 153.084 1183.94 153.084 1162.87C153.084 1131.25 141.915 1109 126.983 1109C109.347 1109 99.3538 1134.18 99.0011 1171.06H109.583C109.818 1145.3 115.814 1130.08 126.865 1130.08C136.154 1130.08 142.385 1142.37 142.385 1164.04C142.385 1187.75 135.213 1200.34 126.513 1200.34H121.575V1222.88H126.395C136.389 1222.88 144.501 1236.35 144.501 1261.52C144.501 1286.99 136.859 1302.21 126.042 1302.21C114.521 1302.21 108.172 1283.77 108.172 1259.47H97.7078C97.7078 1297.53 108.524 1323 126.042 1323Z" fill="black" />
        <path d="M182.117 1318.61V1284.65H168.713V1318.61H182.117Z" fill="black" />
        <path d="M248.449 1250.69V1229.32H197.188V1250.69H248.449Z" fill="black" />
        <path d="M314.528 1318.61V1295.19H271.38C272.203 1287.58 276.788 1277.92 284.43 1263.57L290.191 1252.74C305.71 1223.47 313.117 1201.51 313.117 1170.77C313.117 1132.71 302.066 1109 286.781 1109C271.38 1109 259.387 1134.47 259.387 1178.38V1185.11H269.969V1181.31C269.969 1147.64 276.788 1130.08 286.781 1130.08C296.657 1130.08 302.418 1147.64 302.418 1171.06C302.418 1197.12 293.836 1215.85 286.899 1229.32L275.73 1250.69C262.915 1274.99 258.564 1292.26 258.564 1318.61H314.528Z" fill="black" />
        <path d="M369.862 1318.61V1266.21H385.029V1242.79H369.862V1113.68H355.989L321.775 1241.32V1266.21H359.516V1318.61H369.862ZM331.534 1242.79C332.474 1239.27 333.415 1235.47 334.238 1232.54L355.989 1150.86L359.516 1136.81V1242.79H331.534Z" fill="black" />
        <path d="M409.222 1318.61V1284.65H395.819V1318.61H409.222Z" fill="black" />
        <path d="M440.147 1318.61C441.205 1249.23 453.55 1183.65 469.775 1138.86V1113.68H415.339V1137.1H460.016C458.488 1140.91 456.842 1145.3 455.313 1150.28C441.675 1190.38 431.329 1245.71 429.095 1318.61H440.147Z" fill="black" />
        <path d="M485 1318.61V1284.65H471.597V1318.61H485Z" fill="black" />
        <path d="M682.491 325C690.663 325 696.373 315.561 697.309 300.274L692.632 300.274C691.697 310.534 688.054 317.202 682.393 317.202C675.55 317.202 670.726 305.404 670.726 287.141C670.726 268.981 675.402 257.9 682.393 257.9C688.005 257.9 691.451 264.261 692.337 274.829L697.26 274.829C696.62 260.773 690.909 250 682.59 250C673.089 250 666 264.774 666 287.141C666 310.636 672.646 325 682.491 325Z" fill="black" />
        <path d="M717.821 325C727.076 325 734.164 310.123 734.164 287.551C734.164 264.979 727.174 250 717.821 250C708.517 250 701.477 264.979 701.477 287.551C701.477 310.123 708.566 325 717.821 325ZM717.821 317.202C710.831 317.202 706.203 305.917 706.203 287.551C706.203 269.186 710.978 257.9 717.821 257.9C724.713 257.9 729.439 269.186 729.439 287.551C729.439 305.917 724.811 317.202 717.821 317.202Z" fill="black" />
        <path d="M745.33 323.461L745.33 260.67L757.095 323.461L762.116 323.461L773.833 260.568L773.833 323.461L778.263 323.461L778.263 251.642L771.371 251.642L761.132 306.327C760.64 308.995 760.197 311.354 759.704 314.124L747.89 251.642L740.899 251.642L740.899 323.461L745.33 323.461Z" fill="black" />
        <path d="M787.146 251.642L787.146 323.461L791.626 323.461L791.626 251.642L787.146 251.642Z" fill="black" />
        <path d="M805.039 323.461L805.039 260.67L823.056 323.461L829.308 323.461L829.308 251.642L824.779 251.642L824.779 312.893L807.303 251.642L800.559 251.642L800.559 323.461L805.039 323.461Z" fill="black" />
        <path d="M852.379 325C857.253 325 861.437 319.973 863.308 313.509L863.308 323.461L867 323.461L867 285.91L852.084 285.91L852.084 293.81L862.914 293.81L862.914 295.144C862.914 309.713 858.828 317.202 852.527 317.202C845.537 317.202 840.762 304.788 840.762 287.962C840.762 268.057 845.881 257.9 852.773 257.9C857.647 257.9 861.388 263.851 862.077 272.469L866.852 272.469C866.065 259.234 860.354 250 852.773 250C843.814 250 836.036 263.235 836.036 287.962C836.036 308.892 842.288 325 852.379 325Z" fill="black" />
        <path d="M686.4 415C698.799 415 706.224 405.227 706.224 393.271C706.224 382.25 700.385 376.012 692.383 373.309L683.445 370.398C677.534 368.423 674.65 364.68 674.65 358.442C674.65 351.788 679.48 347.005 686.04 347.005C693.104 347.005 697.79 352.412 698.222 361.041L704.926 361.041C704.35 347.525 697.069 339 686.184 339C675.515 339 667.73 347.525 667.73 359.274C667.73 370.398 674.074 376.74 681.787 379.339L689.284 381.834C695.267 383.81 699.304 386.929 699.304 393.895C699.304 401.796 694.762 407.098 686.472 407.098C678.471 407.098 673.136 400.549 672.704 390.048L666 390.048C666.144 405.435 674.146 415 686.4 415Z" fill="black" />
        <path d="M736.48 415C750.032 415 760.412 399.925 760.412 377.052C760.412 354.179 750.176 339 736.48 339C722.855 339 712.547 354.179 712.547 377.052C712.547 399.925 722.928 415 736.48 415ZM736.48 407.098C726.243 407.098 719.467 395.662 719.467 377.052C719.467 358.442 726.46 347.005 736.48 347.005C746.572 347.005 753.492 358.442 753.492 377.052C753.492 395.662 746.716 407.098 736.48 407.098Z" fill="black" />
        <path d="M791.107 415C804.659 415 815.04 399.925 815.04 377.052C815.04 354.179 804.803 339 791.107 339C777.483 339 767.175 354.179 767.175 377.052C767.175 399.925 777.555 415 791.107 415ZM791.107 407.098C780.871 407.098 774.095 395.662 774.095 377.052C774.095 358.442 781.087 347.005 791.107 347.005C801.199 347.005 808.119 358.442 808.119 377.052C808.119 395.662 801.343 407.098 791.107 407.098Z" fill="black" />
        <path d="M831.462 413.44L831.462 349.813L857.845 413.44L867 413.44L867 340.663L860.368 340.663L860.368 402.732L834.778 340.663L824.902 340.663L824.902 413.44L831.462 413.44Z" fill="black" />
        <path d="M84.3731 412.594L84.3731 394.427L49.3901 394.427C50.0573 388.523 53.7749 381.029 59.9708 369.902L64.6415 361.499C77.224 338.791 83.2293 321.759 83.2293 297.915C83.2293 268.394 74.269 250 61.8772 250C49.3901 250 39.6673 269.757 39.6673 303.819L39.6673 309.042L48.2462 309.042L48.2462 306.09C48.2462 279.975 53.7749 266.35 61.8772 266.35C69.8842 266.35 74.555 279.975 74.555 298.142C74.555 318.353 67.5965 332.886 61.9725 343.332L52.917 359.91C42.5269 378.758 39 392.156 39 412.594L84.3731 412.594Z" fill="black" />
        <path d="M117.963 416C133.119 416 142.175 386.252 142.175 333.341C142.175 280.43 132.738 250 117.963 250C102.997 250 93.7512 281.111 93.7512 333.341C93.7512 385.57 102.521 416 117.963 416ZM117.963 399.877C108.335 399.877 102.425 378.985 102.425 333.341C102.425 287.696 107.859 266.35 117.963 266.35C127.781 266.35 133.405 287.469 133.405 333.341C133.405 379.212 127.686 399.877 117.963 399.877Z" fill="black" />
        <path d="M196.916 412.594L196.916 394.427L161.933 394.427C162.6 388.523 166.318 381.029 172.514 369.902L177.184 361.499C189.767 338.791 195.772 321.759 195.772 297.915C195.772 268.394 186.812 250 174.42 250C161.933 250 152.21 269.757 152.21 303.819L152.21 309.042L160.789 309.042L160.789 306.09C160.789 279.975 166.318 266.35 174.42 266.35C182.427 266.35 187.098 279.975 187.098 298.142C187.098 318.353 180.139 332.886 174.515 343.332L165.46 359.91C155.07 378.758 151.543 392.156 151.543 412.594L196.916 412.594Z" fill="black" />
        <path d="M251 412.594L251 394.427L216.017 394.427C216.684 388.523 220.402 381.029 226.598 369.902L231.268 361.499C243.851 338.791 249.856 321.759 249.856 297.915C249.856 268.394 240.896 250 228.504 250C216.017 250 206.294 269.757 206.294 303.819L206.294 309.042L214.873 309.042L214.873 306.09C214.873 279.975 220.402 266.35 228.504 266.35C236.511 266.35 241.182 279.975 241.182 298.142C241.182 318.353 234.223 332.886 228.599 343.332L219.544 359.91C209.154 378.758 205.627 392.156 205.627 412.594L251 412.594Z" fill="black" />
        <path d="M69 591.142C209.735 653.29 354.076 708.103 499.231 758.994C548.229 776.173 607.187 801.94 661.782 800.515C696.606 799.607 638.12 735.556 632.04 729.841C584.117 684.793 527.364 653.489 462.716 640.614C451.293 638.34 411.643 628.066 429.146 652.688C450.346 682.512 490.965 705.746 526.028 713.35C551.483 718.87 578.411 719.588 604.359 720.418C614.406 720.739 629.998 722.602 639.108 716.295C643.48 713.268 639.027 707.431 635.868 705.694C614.615 694.005 581.177 694.875 558.126 693.031C490.112 687.59 408.95 679.121 342.864 700.393C323.557 706.608 295.763 717.412 305.465 742.503C314.343 765.462 341.065 784.956 365.244 786.675C404.693 789.479 443.417 770.181 475.967 750.16C515.472 725.862 552.719 694.87 583.746 660.344C609.414 631.783 620.557 607.319 580.212 588.492C543.653 571.431 502.807 566.492 463.01 563.756C395.995 559.148 327.029 558.413 260.41 568.173C208.699 575.749 144.813 587.79 102.57 621.768C88.5835 633.018 120.431 626.707 123.773 625.891C160.987 616.794 196.776 597.597 232.14 583.486C313.732 550.93 395.862 519.234 478.912 490.578C547.749 466.826 624.145 449.847 687.402 412.542C688.303 412.011 702.272 402.824 703.745 403.413C708.57 405.343 696.359 469.826 696.089 473.94C694.342 500.535 686.777 543.425 698.592 569.204C707.107 587.782 752.481 560.755 752.481 544.909C752.481 521.903 689.845 535.277 680.629 542.259C664.46 554.508 667.482 583.623 668.114 601.302C668.902 623.367 679.898 644.675 704.923 643.265C728.065 641.961 759.845 632.139 765.586 606.308C769.016 590.869 733.722 594.084 726.42 593.94C673.482 592.891 621.253 594.559 570.347 611.019C499.655 633.878 445.315 675.84 386.446 719.387C338.686 754.717 294.912 794.817 247.306 830.258C232.274 841.448 213.079 858.129 192.975 858.822C172.884 859.515 157.693 821.793 154.398 806.111C152.029 794.83 145.023 764.116 154.693 754.283C172.403 736.272 199.715 723.97 224.778 723.657C238.184 723.489 244.023 727.223 256.287 731.019C289.133 741.185 317.634 737.685 341.097 711.289C371.802 676.746 391.169 635.2 407.354 592.32C418.369 563.139 436.068 509.526 445.047 478.946C446.22 474.953 456.029 443.693 454.765 432.125C451.645 403.569 386.442 430.908 379.084 434.186C346.939 448.508 300.352 473.574 280.14 504.566C273.516 514.723 291.906 500.751 292.803 499.854C318.795 473.862 341.192 444.161 359.649 412.395C361.235 409.665 383.285 375.958 364.066 382.947C344.553 390.043 314.254 419.59 310.766 440.959C309.582 448.212 327.518 447.437 330.201 447.437C357.079 447.437 382.062 437.531 404.704 423.585C448.452 396.637 485.102 352.854 503.059 304.616C508.261 290.643 518.289 255.265 497.464 250.579C473.557 245.2 343.857 243.922 388.802 291.512C417.822 322.239 456.676 333.769 498.2 333.769C501.718 333.769 525.109 329.501 528.237 333.18C539.142 346.01 531.756 403.946 531.329 413.573C524.358 570.865 499.548 727.813 506.887 885.619C508.414 918.445 524.379 947.381 559.599 923.901C609.388 890.708 652.581 842.404 694.911 800.074C699.332 795.653 703.603 791.442 708.457 787.558C713.041 783.891 699.167 794.901 695.5 799.485C663.539 839.436 630.964 887.417 617.316 937.3C612.734 954.051 604.759 993.868 613.783 1010.62C617.403 1017.35 621.452 1001.07 621.734 1000.17C626.044 986.456 629.878 975.311 643.672 969.104C652.538 965.114 649.186 976.528 649.562 982.355C651.06 1005.58 663.627 1029.88 670.617 1051.85C671.374 1054.23 676.65 1077.91 682.396 1077.91C685.194 1077.91 689.423 1065.61 690.199 1064.22C706.38 1035.33 728.554 1010.42 747.475 983.386" stroke="#E2FF5D" stroke-width="4" stroke-linecap="round" />
    </g>
    <defs>
        <clipPath id="clip0_1101_3000">
            <rect width="898" height="1593" fill="white" />
        </clipPath>
    </defs>
</svg>
    